<svg width="356" height="356" viewBox="0 0 356 356" fill="none" xmlns="http://www.w3.org/2000/svg">
<path d="M117.615 53.9336C117.615 53.9336 63.6672 81.4239 36.7607 123.781C9.8542 166.138 11.9831 220.613 44.6781 261.04C77.3732 301.468 139.865 296.192 192.19 321.824C244.515 347.456 302.244 342.173 326.986 287.89C351.728 233.607 314.419 213.293 308.011 150.488C301.603 87.6824 244.978 -4.27237 117.615 53.9336Z" fill="#FFC100"/>
<path opacity="0.7" d="M117.615 53.9336C117.615 53.9336 63.6672 81.4239 36.7607 123.781C9.8542 166.138 11.9831 220.613 44.6781 261.04C77.3732 301.468 139.865 296.192 192.19 321.824C244.515 347.456 302.244 342.173 326.986 287.89C351.728 233.607 314.419 213.293 308.011 150.488C301.603 87.6824 244.978 -4.27237 117.615 53.9336Z" fill="white"/>
<path d="M332.646 194.732H329.692V194.226C329.69 192.846 329.141 191.524 328.165 190.548C327.189 189.572 325.867 189.023 324.487 189.021H322.486C321.105 189.021 319.781 189.57 318.803 190.545C317.826 191.521 317.276 192.845 317.274 194.226V194.732H314.327C313.933 194.731 313.543 194.808 313.178 194.958C312.814 195.108 312.483 195.329 312.205 195.608C311.926 195.886 311.706 196.217 311.555 196.581C311.405 196.945 311.328 197.335 311.329 197.729V211.385C311.329 212.18 311.645 212.943 312.207 213.505C312.769 214.067 313.532 214.383 314.327 214.383H332.646C333.441 214.381 334.202 214.065 334.764 213.503C335.326 212.941 335.642 212.18 335.644 211.385V197.729C335.644 196.934 335.328 196.172 334.766 195.61C334.204 195.048 333.441 194.732 332.646 194.732ZM318.698 194.226C318.7 193.223 319.1 192.261 319.81 191.552C320.52 190.844 321.483 190.445 322.486 190.445H324.487C325.49 190.445 326.451 190.844 327.16 191.553C327.869 192.262 328.268 193.223 328.268 194.226V194.732H318.698V194.226Z" fill="#263238"/>
<path d="M328.944 203.162H325.17V199.396H321.796V203.162H318.022V206.544H321.796V210.31H325.17V206.544H328.944V203.162Z" fill="white"/>
<path d="M326.808 113.35C326.221 113.35 325.64 113.234 325.098 113.01C324.556 112.785 324.063 112.455 323.649 112.04C323.234 111.625 322.905 111.132 322.682 110.589C322.458 110.047 322.343 109.466 322.344 108.879V96.8317C322.343 96.2449 322.458 95.6636 322.682 95.1211C322.905 94.5787 323.234 94.0857 323.649 93.6704C324.063 93.2551 324.556 92.9256 325.098 92.7008C325.64 92.4761 326.221 92.3604 326.808 92.3604C327.395 92.3604 327.976 92.4761 328.518 92.7008C329.06 92.9256 329.553 93.2551 329.967 93.6704C330.382 94.0857 330.711 94.5787 330.934 95.1211C331.158 95.6636 331.273 96.2449 331.272 96.8317V108.857C331.276 109.446 331.163 110.03 330.941 110.575C330.718 111.119 330.39 111.615 329.975 112.033C329.56 112.45 329.066 112.781 328.523 113.008C327.979 113.234 327.397 113.35 326.808 113.35Z" fill="white" stroke="#263238" stroke-linecap="round" stroke-linejoin="round"/>
<path d="M326.808 113.35C326.221 113.35 325.64 113.234 325.098 113.01C324.556 112.785 324.063 112.455 323.649 112.04C323.234 111.625 322.905 111.132 322.682 110.589C322.458 110.047 322.343 109.466 322.344 108.879V102.862H331.272V108.879C331.273 109.466 331.158 110.047 330.934 110.589C330.711 111.132 330.382 111.625 329.967 112.04C329.553 112.455 329.06 112.785 328.518 113.01C327.976 113.234 327.395 113.35 326.808 113.35Z" fill="#263238" stroke="#263238" stroke-linecap="round" stroke-linejoin="round"/>
<path d="M304.351 95.6068C303.984 95.1483 303.711 94.6218 303.549 94.0576C303.386 93.4933 303.336 92.9024 303.402 92.3188C303.468 91.7353 303.649 91.1705 303.934 90.6571C304.219 90.1436 304.603 89.6916 305.063 89.3269L314.44 81.794C315.369 81.0558 316.552 80.7163 317.731 80.8498C318.91 80.9832 319.987 81.5789 320.727 82.506C321.465 83.4334 321.805 84.6157 321.671 85.7932C321.538 86.9707 320.942 88.0471 320.015 88.7858L310.631 96.3117C310.173 96.6782 309.647 96.9508 309.083 97.1138C308.519 97.2768 307.928 97.327 307.345 97.2615C306.762 97.1961 306.197 97.0162 305.684 96.7323C305.17 96.4483 304.717 96.0659 304.351 95.6068Z" fill="white" stroke="#263238" stroke-linecap="round" stroke-linejoin="round"/>
<path d="M304.351 95.6069C303.984 95.1484 303.711 94.6219 303.549 94.0577C303.386 93.4934 303.336 92.9025 303.402 92.3189C303.468 91.7354 303.649 91.1706 303.934 90.6572C304.219 90.1437 304.603 89.6917 305.063 89.327L309.755 85.5605L315.345 92.531L310.653 96.2904C310.195 96.6615 309.668 96.9383 309.103 97.1048C308.538 97.2714 307.945 97.3244 307.36 97.2609C306.774 97.1974 306.206 97.0185 305.69 96.7346C305.174 96.4507 304.719 96.0674 304.351 95.6069Z" fill="#263238" stroke="#263238" stroke-linecap="round" stroke-linejoin="round"/>
<path d="M259.702 62.8264C259.145 62.8267 258.603 63.0009 258.15 63.3248L247.776 55.2721C248.285 54.3311 248.523 53.2679 248.465 52.1999C248.407 51.1319 248.056 50.1007 247.449 49.2201L253.785 41.1175C254.322 41.3243 254.91 41.354 255.464 41.2022C256.019 41.0504 256.51 40.7252 256.866 40.2741C257.222 39.8229 257.425 39.2696 257.444 38.6952C257.463 38.1207 257.297 37.5553 256.972 37.0817C256.646 36.608 256.177 36.2511 255.634 36.0631C255.091 35.8751 254.502 35.8659 253.953 36.0369C253.404 36.2079 252.925 36.55 252.585 37.0133C252.244 37.4765 252.061 38.0365 252.062 38.6113C252.059 39.1652 252.231 39.706 252.554 40.1563L246.388 48.0524C245.561 47.3562 244.556 46.9041 243.487 46.7469C242.417 46.5897 241.325 46.7335 240.333 47.1624C239.341 47.5912 238.488 48.288 237.869 49.1747C237.251 50.0613 236.892 51.1027 236.833 52.182H229.627C229.549 51.5424 229.243 50.9523 228.766 50.5189C228.289 50.0855 227.673 49.8376 227.028 49.8203C226.384 49.803 225.755 50.0173 225.256 50.4244C224.756 50.8316 224.419 51.4044 224.306 52.0388C224.193 52.6732 224.312 53.3272 224.64 53.8817C224.968 54.4362 225.485 54.8546 226.095 55.0607C226.706 55.2668 227.37 55.247 227.967 55.0049C228.564 54.7627 229.055 54.3144 229.35 53.7413H236.968C237.191 54.7765 237.692 55.7314 238.417 56.5032C239.142 57.275 240.064 57.8346 241.083 58.1216C242.102 58.4087 243.181 58.4124 244.202 58.1323C245.223 57.8523 246.149 57.2991 246.879 56.5323L257.196 64.5566C256.992 65.0918 256.965 65.6781 257.119 66.2298C257.272 66.7815 257.598 67.2696 258.049 67.623C258.499 67.9763 259.051 68.1763 259.623 68.1937C260.196 68.211 260.759 68.045 261.23 67.7196C261.701 67.3943 262.056 66.9268 262.243 66.3855C262.429 65.8441 262.438 65.2573 262.267 64.7107C262.096 64.1641 261.755 63.6864 261.294 63.3474C260.833 63.0084 260.275 62.8258 259.702 62.8264Z" fill="#263238"/>
<path d="M48.9714 113.436C48.109 113.434 47.2824 113.091 46.6726 112.481C46.0628 111.871 45.7194 111.044 45.7175 110.182V83.126H52.2252V110.182C52.2252 111.045 51.8824 111.873 51.2722 112.483C50.662 113.093 49.8343 113.436 48.9714 113.436Z" fill="white" stroke="#263238" stroke-linecap="round" stroke-linejoin="round"/>
<path d="M48.9714 113.435C48.109 113.433 47.2824 113.09 46.6726 112.48C46.0628 111.87 45.7194 111.044 45.7175 110.181V93.542H52.2252V110.181C52.2252 111.044 51.8824 111.872 51.2722 112.482C50.662 113.092 49.8343 113.435 48.9714 113.435Z" fill="#263238" stroke="#263238" stroke-linecap="round" stroke-linejoin="round"/>
<path d="M53.158 81.5449H44.792V83.9159H53.158V81.5449Z" fill="white" stroke="#263238" stroke-linecap="round" stroke-linejoin="round"/>
<path d="M39.1103 113.436C38.2479 113.434 37.4214 113.091 36.8115 112.481C36.2017 111.871 35.8583 111.044 35.8564 110.182V83.126H42.3641V110.182C42.3641 111.045 42.0213 111.873 41.4111 112.483C40.8009 113.093 39.9733 113.436 39.1103 113.436Z" fill="white" stroke="#263238" stroke-linecap="round" stroke-linejoin="round"/>
<path d="M39.1103 113.435C38.2479 113.433 37.4214 113.09 36.8115 112.48C36.2017 111.87 35.8583 111.044 35.8564 110.181V93.542H42.3641V110.181C42.3641 111.044 42.0213 111.872 41.4111 112.482C40.8009 113.092 39.9733 113.435 39.1103 113.435Z" fill="#263238" stroke="#263238" stroke-linecap="round" stroke-linejoin="round"/>
<path d="M43.2967 81.5449H34.9307V83.9159H43.2967V81.5449Z" fill="white" stroke="#263238" stroke-linecap="round" stroke-linejoin="round"/>
<path d="M132.987 54.8733L135.579 48.6504C135.623 48.5502 135.696 48.4654 135.789 48.407C135.881 48.3486 135.989 48.3193 136.099 48.3229C136.209 48.3284 136.314 48.3675 136.401 48.4351C136.487 48.5026 136.551 48.5952 136.583 48.7003L139.723 59.0527L142.115 51.4272C142.148 51.3199 142.214 51.2257 142.303 51.158C142.393 51.0902 142.501 51.0524 142.614 51.0499C142.725 51.0529 142.832 51.0882 142.923 51.1514C143.014 51.2146 143.085 51.3031 143.126 51.4059L144.458 55.2364H151.656C153.129 53.6968 153.986 51.6699 154.063 49.5404C154.076 47.5514 153.355 45.6274 152.036 44.138C150.718 42.6487 148.896 41.6989 146.92 41.4711C144.944 41.2433 142.953 41.7535 141.331 42.9039C139.708 44.0542 138.567 45.7635 138.128 47.7035C137.676 45.7771 136.531 44.0842 134.912 42.9467C133.293 41.8092 131.312 41.3065 129.347 41.5341C127.381 41.7618 125.568 42.704 124.251 44.1815C122.935 45.659 122.208 47.5688 122.208 49.5475C122.287 51.5196 123.027 53.4079 124.308 54.9089L132.987 54.8733Z" fill="#263238"/>
<path d="M144.08 56.3047C143.97 56.3051 143.861 56.2711 143.771 56.2073C143.68 56.1435 143.612 56.0531 143.575 55.9487L142.649 53.2858L140.221 61.0252C140.187 61.1342 140.118 61.2295 140.026 61.2973C139.934 61.3651 139.823 61.4019 139.709 61.4026C139.594 61.4022 139.483 61.3645 139.392 61.2951C139.3 61.2257 139.234 61.1284 139.203 61.0181L135.992 50.4307L133.856 55.614C133.815 55.7109 133.747 55.7936 133.66 55.8519C133.572 55.9101 133.47 55.9413 133.365 55.9415H125.17C126.928 57.9067 129.121 59.6439 130.759 61.2602C133.237 63.7095 135.665 66.2442 138.192 68.608C141.432 65.4111 144.693 62.2 147.904 59.0031C148.794 58.1131 149.762 57.2303 150.659 56.3047H144.08Z" fill="#263238"/>
<path d="M23.9722 215.446L27.4634 216.657L31.241 205.767L27.7498 204.556L23.9722 215.446Z" fill="white" stroke="#263238" stroke-miterlimit="10"/>
<path d="M22.3169 217.175L27.7051 219.044L28.4167 216.992L23.0286 215.123L22.3169 217.175Z" fill="white" stroke="#263238" stroke-miterlimit="10"/>
<path d="M23.9 207.358L32.5305 210.352L39.3741 190.622L30.7436 187.628L23.9 207.358Z" fill="white" stroke="#263238" stroke-miterlimit="10"/>
<path d="M28.0965 198.918L34.4668 201.128L38.2444 190.237L31.8741 188.028L28.0965 198.918Z" fill="#263238" stroke="#263238" stroke-miterlimit="10"/>
<path d="M26.9697 206.812L30.4609 208.023L34.2386 197.133L30.7474 195.922L26.9697 206.812Z" fill="#263238" stroke="#263238" stroke-miterlimit="10"/>
<path d="M23.2906 207.151L33.1521 210.571L34.0084 208.103L24.1469 204.682L23.2906 207.151Z" fill="white" stroke="#263238" stroke-miterlimit="10"/>
<path d="M32.848 187.217L37.9873 189L39.1283 185.711L33.989 183.928L32.848 187.217Z" fill="white" stroke="#263238" stroke-miterlimit="10"/>
<path d="M29.9185 188.036L39.78 191.457L40.6364 188.988L30.7748 185.568L29.9185 188.036Z" fill="white" stroke="#263238" stroke-miterlimit="10"/>
<path d="M36.6111 184.372L40.7407 172.453" stroke="#263238" stroke-miterlimit="10"/>
<path d="M266.217 332.504C286.794 332.504 303.476 328.742 303.476 324.102C303.476 319.462 286.794 315.701 266.217 315.701C245.639 315.701 228.958 319.462 228.958 324.102C228.958 328.742 245.639 332.504 266.217 332.504Z" fill="#263238" stroke="#263238" stroke-linecap="round" stroke-linejoin="round"/>
<path d="M237.487 134.197C237.487 134.197 232.447 137.28 232.503 138.633C232.56 139.986 230.624 164.657 230.403 167.74C230.182 170.823 227.249 177.188 227.021 180.079C226.793 182.969 227.519 185.867 228.367 187.199C229.214 188.53 232.325 192.788 232.325 192.788L240.691 179.865C240.897 177.043 240.939 174.212 240.82 171.385C240.692 165.226 237.487 134.197 237.487 134.197Z" fill="white" stroke="#263238" stroke-linecap="round" stroke-linejoin="round"/>
<path d="M269.677 73.0653C269.677 73.0653 260.777 72.4957 255.708 78.6687C250.638 84.8418 251.728 94.2829 251.692 97.1807C251.656 100.079 243.048 108.573 244.002 112.033C244.956 115.493 247.491 115.885 246.679 118.776C245.868 121.666 240.571 123.404 241.339 127.07C242.108 130.737 244.899 135.935 244.899 135.935L296.163 136.284C296.163 136.284 297.993 130.887 296.042 126.836C294.092 122.784 291.322 121.446 291.77 119.516C292.219 117.587 294.697 112.959 293.743 109.491C292.789 106.024 289.471 105.063 289.122 98.8895C288.773 92.7165 287.862 82.5135 282.963 77.5295C278.064 72.5455 269.677 73.0653 269.677 73.0653Z" fill="#263238" stroke="#263238" stroke-linecap="round" stroke-linejoin="round"/>
<path d="M253.913 310.952C252.339 313.985 250.428 316.832 248.217 319.439C244.942 323.106 241.767 325.035 241.873 326.965C241.98 328.894 249.129 329.272 252.909 327.919C256.69 326.566 259.439 323.867 260.2 323.647C260.962 323.426 263.091 323.647 263.141 320.941C263.191 318.236 262.778 310.532 262.778 310.532L253.913 310.952Z" fill="white" stroke="#263238" stroke-linecap="round" stroke-linejoin="round"/>
<path d="M252.895 327.918C256.683 326.566 259.424 323.867 260.186 323.646C260.948 323.426 263.077 323.646 263.127 320.941C263.127 319.517 263.048 316.669 262.949 314.341C262.388 315.391 261.559 316.274 260.546 316.9C259.533 317.525 258.372 317.871 257.181 317.901C257.181 317.901 257.11 316.548 255.045 314.241C253.714 312.731 252.368 313.921 251.585 314.953L250.951 315.907L250.902 316C250.08 317.212 249.181 318.37 248.21 319.467C244.935 323.134 241.76 325.063 241.866 326.993C241.973 328.922 249.115 329.271 252.895 327.918Z" fill="white" stroke="#263238" stroke-linecap="round" stroke-linejoin="round"/>
<path d="M280.293 310.937C282.206 313.982 284.425 316.823 286.915 319.417C290.581 323.077 293.963 324.999 294.035 326.929C294.106 328.858 287.028 329.243 283.098 327.897C279.168 326.552 276.135 323.853 275.359 323.661C274.583 323.469 272.461 323.661 272.126 320.969C271.792 318.278 271.372 310.56 271.372 310.56L280.293 310.937Z" fill="white" stroke="#263238" stroke-linecap="round" stroke-linejoin="round"/>
<path d="M283.127 327.897C279.204 326.551 276.163 323.853 275.387 323.661C274.611 323.468 272.489 323.661 272.155 320.969C271.977 319.545 271.777 316.697 271.628 314.362C272.286 315.406 273.191 316.273 274.262 316.886C275.333 317.499 276.539 317.84 277.772 317.879C277.772 317.879 277.701 316.526 279.503 314.212C280.677 312.71 282.151 313.892 283.063 314.924C283.298 315.238 283.54 315.551 283.775 315.878L283.839 315.971C284.796 317.181 285.818 318.339 286.9 319.438C290.567 323.098 293.949 325.021 294.02 326.95C294.092 328.88 287.057 329.243 283.127 327.897Z" fill="white" stroke="#263238" stroke-linecap="round" stroke-linejoin="round"/>
<path d="M238.427 209.186C238.427 209.186 239.616 249.278 241.197 257.182C242.778 265.085 249.833 310.382 249.833 310.382C251.99 311.295 254.313 311.751 256.654 311.721H264.365L265.077 277.986L265.341 229.022L269.207 311.906C269.207 311.906 279.83 312.283 280.976 312.091C282.123 311.899 283.077 311.707 283.077 311.707L289.905 259.268L293.814 224.38L294.027 210.503C294.027 210.503 261.389 209.371 251.905 208.602C242.422 207.833 238.52 207.641 238.52 207.641L238.427 209.186Z" fill="#FFC100" stroke="#263238" stroke-linecap="round" stroke-linejoin="round"/>
<path d="M282.5 279.973C282.415 280.642 282.329 281.261 282.229 281.831" stroke="#263238" stroke-linecap="round" stroke-linejoin="round"/>
<path d="M283.376 231.706C283.376 231.706 284.038 260.271 282.877 275.779" stroke="#263238" stroke-linecap="round" stroke-linejoin="round"/>
<path d="M248.381 229.413C248.381 229.413 249.2 248.31 250.012 252.546" stroke="#263238" stroke-linecap="round" stroke-linejoin="round"/>
<path d="M278.805 217.373V231.798C280.653 232.296 282.543 232.622 284.451 232.774C287.377 232.966 292.838 232.774 292.838 232.774L293.23 227.313L278.805 217.373Z" fill="#263238" stroke="#263238" stroke-linecap="round" stroke-linejoin="round"/>
<path d="M239.032 228.481C239.032 228.481 246.444 230.823 249.563 231.016C252.682 231.208 255.601 231.599 255.601 231.599L255.216 227.705L238.641 226.146L239.032 228.481Z" fill="#263238" stroke="#263238" stroke-linecap="round" stroke-linejoin="round"/>
<path d="M261.532 118.954L255.715 125.512L239.581 137.281L243.02 208.616C243.02 208.616 255.879 212.077 266.915 213.038C277.951 213.999 292.141 211.471 292.141 211.471L290.055 136.711C290.055 136.711 283.775 127.455 280.556 124.956C277.338 122.457 275.864 120.143 271.599 119.759C267.335 119.374 261.532 118.954 261.532 118.954Z" fill="#FFC100" stroke="#263238" stroke-linecap="round" stroke-linejoin="round"/>
<path d="M254.782 122.464L237.487 134.233L240.2 177.601L239.282 181.958L232.012 190.332L235.109 205.042L233.728 225.796C233.728 225.796 240.599 228.11 245.255 228.68C248.722 229.052 252.206 229.244 255.693 229.257L256.291 200.919C256.291 200.919 258.591 153.877 258.862 151.791C259.132 149.705 261.532 119.039 261.532 119.039L254.782 122.464Z" fill="white" stroke="#263238" stroke-linecap="round" stroke-linejoin="round"/>
<path d="M255.06 124.236L246.687 145.233L255.722 148.985L247.192 150.538L254.746 180.135" stroke="#263238" stroke-linecap="round" stroke-linejoin="round"/>
<path d="M260.079 113.364C260.079 113.364 263.084 133.407 265.448 138.035C267.812 142.663 268.481 144.201 268.481 144.201C268.481 144.201 273.622 128.58 274.654 126.266C275.686 123.952 276.79 115.664 276.79 115.664C276.79 115.664 266.544 118.946 260.079 113.364Z" fill="white" stroke="#263238" stroke-linecap="round" stroke-linejoin="round"/>
<path d="M260.079 113.364C260.079 113.364 260.35 115.187 260.791 117.857C262.294 119.003 266.274 121.837 269.214 121.987C271.457 122.1 274.305 120.648 276.199 119.487C276.541 117.387 276.776 115.664 276.776 115.664C276.776 115.664 266.544 118.946 260.079 113.364Z" fill="#263238" stroke="#263238" stroke-linecap="round" stroke-linejoin="round"/>
<path d="M256 99.5093C256 99.5093 253.949 96.5901 252.568 99.5093C251.186 102.429 254.704 106.75 255.686 107.341C258.477 109 257.737 105.917 257.737 105.917L256 99.5093Z" fill="white" stroke="#263238" stroke-linecap="round" stroke-linejoin="round"/>
<path d="M281.468 100.769C281.468 100.769 283.198 97.7499 284.892 100.598C286.587 103.446 283.533 107.924 282.621 108.558C280.015 110.359 280.428 107.269 280.428 107.269L281.468 100.769Z" fill="white" stroke="#263238" stroke-linecap="round" stroke-linejoin="round"/>
<path d="M255.515 96.9311C255.515 96.9311 262.949 95.1938 266.694 92.9795C268.988 91.5941 270.988 89.7726 272.582 87.6182C272.582 87.6182 275.8 93.6986 278.634 96.1622C281.468 98.6257 282.059 98.7681 282.059 98.7681C282.059 98.7681 280.699 109.412 279.161 113.115C277.623 116.817 272.603 120.42 267.918 119.38C265.256 118.797 260.642 116.874 259.303 113.635C257.965 110.395 255.515 96.9311 255.515 96.9311Z" fill="white" stroke="#263238" stroke-linecap="round" stroke-linejoin="round"/>
<path d="M274.483 105.112C272.176 105.169 264.451 105.183 260.464 102.777C258.866 101.846 257.369 100.751 256 99.5088C256.142 100.221 256.313 101.111 256.498 102.036L257.367 102.67L259.545 110.901L258.527 111.122C258.742 111.963 259.001 112.792 259.303 113.606C260.642 116.846 265.256 118.768 267.918 119.352C272.596 120.385 277.602 116.803 279.154 113.108C278.787 112.39 278.679 111.568 278.848 110.78C279.296 108.452 279.852 104.372 279.852 104.372L281.439 102.948C281.525 102.428 281.596 101.93 281.667 101.474C279.745 102.805 276.142 105.07 274.483 105.112Z" fill="#FFC100" stroke="#263238" stroke-linecap="round" stroke-linejoin="round"/>
<path d="M266.003 101.673C266.003 101.673 263.518 98.6544 260.257 98.9321" stroke="#263238" stroke-linecap="round" stroke-linejoin="round"/>
<path d="M272.404 102.272C273.197 101.438 274.182 100.812 275.273 100.447C276.364 100.082 277.528 99.9897 278.663 100.179" stroke="#263238" stroke-linecap="round" stroke-linejoin="round"/>
<path d="M258.826 97.4229C258.826 97.4229 262.386 95.9989 265.54 96.6682" stroke="#263238" stroke-linecap="round" stroke-linejoin="round"/>
<path d="M272.696 97.444C273.634 96.9648 274.696 96.7857 275.739 96.9309C276.783 97.0761 277.756 97.5386 278.527 98.2557" stroke="#263238" stroke-linecap="round" stroke-linejoin="round"/>
<path d="M263.611 100.684C263.627 100.794 263.621 100.905 263.594 101.012C263.567 101.12 263.519 101.22 263.453 101.309C263.387 101.398 263.304 101.472 263.209 101.529C263.114 101.585 263.008 101.622 262.899 101.638C262.676 101.613 262.471 101.504 262.326 101.334C262.18 101.163 262.105 100.944 262.116 100.72C262.099 100.61 262.104 100.498 262.13 100.391C262.157 100.283 262.205 100.182 262.271 100.093C262.337 100.004 262.421 99.9294 262.516 99.8732C262.612 99.817 262.718 99.7804 262.828 99.7656C263.05 99.7923 263.254 99.9016 263.399 100.072C263.544 100.242 263.62 100.461 263.611 100.684Z" fill="#263238"/>
<path d="M276.505 101.61C276.524 101.719 276.521 101.832 276.495 101.94C276.469 102.049 276.421 102.151 276.355 102.24C276.288 102.329 276.204 102.404 276.107 102.46C276.011 102.515 275.904 102.551 275.793 102.564C275.571 102.54 275.366 102.433 275.221 102.264C275.075 102.094 275 101.875 275.01 101.652C274.991 101.543 274.994 101.43 275.02 101.322C275.046 101.213 275.094 101.111 275.16 101.022C275.227 100.933 275.311 100.858 275.408 100.802C275.504 100.746 275.611 100.711 275.722 100.698C275.944 100.722 276.149 100.829 276.295 100.998C276.44 101.168 276.516 101.386 276.505 101.61Z" fill="#263238"/>
<path d="M295.679 130.11C295.679 130.11 299.83 132.033 301.375 135.094C302.92 138.156 315.273 171.328 315.216 173.834C315.16 176.341 311.073 179.231 307.242 179.623C303.412 180.014 297.829 173.072 296.996 171.919C296.163 170.766 296.014 157.266 296.014 157.266L295.679 130.11Z" fill="white" stroke="#263238" stroke-linecap="round" stroke-linejoin="round"/>
<path d="M276.114 121.254L278.136 187.57L278.848 229.4C282.724 230.353 286.696 230.866 290.688 230.93C294.018 231 297.328 230.41 300.428 229.193C300.428 229.193 299.218 203.17 299.004 198.926C298.791 194.682 297.381 186.587 297.381 186.587L295.701 130.111C295.701 130.111 280.058 122.792 276.114 121.254Z" fill="white" stroke="#263238" stroke-linecap="round" stroke-linejoin="round"/>
<path d="M280.556 124.913L287.726 148.302L281.19 150.075L287.548 153.158L279.616 178.356" fill="white"/>
<path d="M280.556 124.913L287.726 148.302L281.19 150.075L287.548 153.158L279.616 178.356" stroke="#263238" stroke-linecap="round" stroke-linejoin="round"/>
<path d="M285.555 146.309L276.662 188.915C276.662 188.915 282.742 190.837 287.185 191.051C291.628 191.264 300.884 191.236 300.884 191.236L310.14 151.52C310.14 151.52 291.92 149.776 285.555 146.309Z" fill="#263238" stroke="#263238" stroke-linecap="round" stroke-linejoin="round"/>
<path d="M288.652 186.017L288.944 172.702L296 174.19C296 174.19 291.336 184.464 288.652 186.017Z" fill="white" stroke="#263238" stroke-linecap="round" stroke-linejoin="round"/>
<path d="M294.056 167.89C294.056 167.89 292.176 165.198 291.571 164.614C290.966 164.031 287.976 162.307 287.399 162.307C286.822 162.307 283.725 162.115 283.127 162.115C282.529 162.115 281.852 163.468 282.465 164.045C283.077 164.621 285.206 164.814 285.206 164.814L286.665 166.95L280.079 166.373C280.079 166.373 278.983 167.534 279.232 168.509C279.419 169.17 279.657 169.815 279.944 170.439C279.919 171.854 279.993 173.27 280.165 174.675C280.421 175.835 281.589 176.22 283.191 177.181C284.793 178.142 290.154 177.566 290.154 177.566H292.632L294.056 167.89Z" fill="white" stroke="#263238" stroke-linecap="round" stroke-linejoin="round"/>
<path d="M310.112 169.228L293.024 166.929C293.024 166.929 291.692 177.922 290.346 181.582C289.001 185.241 288.652 186.017 288.652 186.017C288.652 186.017 306.559 185.619 310.781 185.234C315.003 184.85 317.374 182.336 317.189 178.869C317.004 175.402 314.889 171.927 314.889 171.927" fill="white"/>
<path d="M310.112 169.228L293.024 166.929C293.024 166.929 291.692 177.922 290.346 181.582C289.001 185.241 288.652 186.017 288.652 186.017C288.652 186.017 306.559 185.619 310.781 185.234C315.003 184.85 317.374 182.336 317.189 178.869C317.004 175.402 314.889 171.927 314.889 171.927" stroke="#263238" stroke-linecap="round" stroke-linejoin="round"/>
<path d="M238.855 181.232C238.855 181.232 242.842 183.732 243.839 184.508C244.835 185.284 244.921 190.289 245.555 191.25C246.188 192.211 245.441 192.795 244.287 192.795C243.134 192.795 241.389 189.136 241.389 189.136L241.318 187.783L233.173 190.488L231.037 186.829C231.037 186.829 233.458 181.232 238.855 181.232Z" fill="white" stroke="#263238" stroke-linecap="round" stroke-linejoin="round"/>
<path d="M179.517 332.504C200.094 332.504 216.775 328.742 216.775 324.102C216.775 319.462 200.094 315.701 179.517 315.701C158.939 315.701 142.258 319.462 142.258 324.102C142.258 328.742 158.939 332.504 179.517 332.504Z" fill="#263238" stroke="#263238" stroke-linecap="round" stroke-linejoin="round"/>
<path d="M208.616 124.45C208.616 124.45 213.5 148.964 214.369 153.5C215.238 158.035 216.833 168.815 218.641 173.543C220.449 178.27 219.859 184.322 218.954 186.024C218.047 187.503 217.006 188.895 215.843 190.182L209.777 182.272C209.777 182.272 206.167 143.51 206.031 138.021C205.896 132.531 208.616 124.45 208.616 124.45Z" fill="white" stroke="#263238" stroke-linecap="round" stroke-linejoin="round"/>
<path d="M211.834 181.304C211.834 181.304 215.679 183.703 216.355 184.721C217.032 185.739 217.516 187.035 216.989 188.139C216.462 189.243 213.593 192.575 212.867 193.223C212.14 193.871 211.528 191.286 211.443 189.065C211.357 186.843 211.834 181.304 211.834 181.304Z" fill="white" stroke="#263238" stroke-linecap="round" stroke-linejoin="round"/>
<path d="M191.158 315.729C191.158 315.729 203.212 321.589 203.974 322.728C204.736 323.868 201.987 325.384 194.803 325.384C187.619 325.384 187.406 324.437 184.55 323.682C181.695 322.928 176.006 323.49 175.238 321.789C174.469 320.087 175.807 314.227 175.807 314.227L191.158 315.729Z" fill="white" stroke="#263238" stroke-linecap="round" stroke-linejoin="round"/>
<path d="M175.152 318.756C175.152 318.756 185.12 324.808 184.244 326.887C183.369 328.966 176.163 328.966 172.368 328.396C168.573 327.826 160.506 322.7 160.079 320.835C159.652 318.969 160.72 316.107 166.565 315.544C172.411 314.982 175.152 318.756 175.152 318.756Z" fill="white" stroke="#263238" stroke-linecap="round" stroke-linejoin="round"/>
<path d="M205.412 219.865C205.412 219.865 199.716 263.732 198.726 270.161C197.737 276.59 194.597 286.8 192.902 294.554C191.942 299.114 191.229 303.723 190.766 308.36C190.593 309.679 190.624 311.016 190.859 312.326C191.101 314.22 191.136 315.729 191.136 315.729C188.601 316.365 186.021 316.808 183.418 317.053C180.207 317.246 175.857 317.246 175.857 317.246L174.433 304.956C174.433 304.956 175.494 286.8 176.12 281.51C176.747 276.22 177.416 234.618 177.388 233.479C177.359 232.34 177.11 222.322 177.11 222.322L196.512 220.243C196.512 220.243 199.161 212.681 203.141 213.059C207.121 213.436 205.412 219.865 205.412 219.865Z" fill="white" stroke="#263238" stroke-linecap="round" stroke-linejoin="round"/>
<path d="M203.169 213.059C199.189 212.681 196.541 220.243 196.541 220.243L177.117 222.322C177.117 222.322 177.181 224.985 177.245 227.719C179.317 227.904 181.233 228.011 182.87 228.011C189.093 228 195.311 227.651 201.496 226.964L202.329 218.249L203.632 227.128L204.529 226.836C205.085 222.607 205.441 219.851 205.441 219.851C205.441 219.851 207.149 213.436 203.169 213.059Z" fill="#263238" stroke="#263238" stroke-linecap="round" stroke-linejoin="round"/>
<path d="M156.854 221.19C156.854 221.19 156.854 221.461 156.896 221.952C157.16 227.121 158.726 257.075 159.203 262.6C159.737 268.652 157.067 275.267 157.203 280.749C157.338 286.232 158.627 315.922 158.627 315.922L160.051 320.835C160.051 320.835 163.397 318.571 166.608 318.571C169.819 318.571 175.152 318.756 175.152 318.756C175.152 318.756 175.43 314.783 175.401 313.466C175.373 312.148 175.252 307.414 175.252 307.414C175.252 307.414 180.684 282.643 181.012 280.564C181.339 278.485 185.554 242.558 185.526 241.404C185.498 240.251 186.416 224.195 186.416 224.195L156.854 221.19Z" fill="white" stroke="#263238" stroke-linecap="round" stroke-linejoin="round"/>
<path d="M186.217 227.976C186.338 225.783 186.423 224.216 186.423 224.216L156.854 221.19C156.854 221.19 156.854 221.461 156.896 221.952C156.896 222.579 156.975 223.569 157.046 224.8C163.96 226.039 175.957 227.99 182.87 227.99C184.009 228.011 185.12 227.997 186.217 227.976Z" fill="#263238" stroke="#263238" stroke-linecap="round" stroke-linejoin="round"/>
<path d="M178.641 105.091C178.641 105.091 175.515 105.618 174.326 107.013C173.135 108.371 172.063 109.829 171.122 111.371C170.958 111.898 152.575 123.055 152.575 123.055L153.899 176.255C153.899 176.255 154.447 184.45 153.472 187.241C151.824 192.729 151.024 198.436 151.101 204.166C151.272 210.965 151.713 221.966 151.713 221.966C151.713 221.966 172.753 226.152 182.87 226.152C189.093 226.137 195.311 225.783 201.496 225.091L202.329 216.369L203.596 225.269L207.918 223.845L211.478 197.501C211.478 197.501 213.956 191.919 213.928 190.695C213.899 189.47 214.554 187.904 213.835 186.857C213.116 185.81 211.834 183.717 211.834 183.717C211.834 183.717 208.616 126.024 208.616 124.45C208.616 122.877 199.097 113.642 198.392 113.293C197.687 112.944 193.344 106.486 187.712 104.749C182.08 103.012 178.641 105.091 178.641 105.091Z" fill="white" stroke="#263238" stroke-linecap="round" stroke-linejoin="round"/>
<path d="M172.909 113.115L170.802 132.275L179.46 136.298L177.295 142.799L198.947 180.848" stroke="#263238" stroke-linecap="round" stroke-linejoin="round"/>
<path d="M197.096 115.266L203.589 130.424L200.805 134.134L205.448 140.627L203.589 182.393" stroke="#263238" stroke-linecap="round" stroke-linejoin="round"/>
<path d="M177.836 107.711C177.994 111.449 178.672 115.147 179.851 118.697C181.724 123.931 194.134 160.036 194.134 160.036L202.158 188.288C202.158 188.288 201.097 159.509 201.069 158.292C201.04 157.074 194.988 117.124 194.988 117.124C194.988 117.124 193.956 110.673 192.325 108.231C190.695 105.789 179.766 101.253 177.836 107.711Z" fill="#FFC100" stroke="#263238" stroke-linecap="round" stroke-linejoin="round"/>
<path d="M177.067 104.921C177.067 104.921 172.019 105.441 172.909 113.116C173.799 120.791 174.974 126.025 174.974 126.025" stroke="#263238" stroke-width="2" stroke-linecap="round" stroke-linejoin="round"/>
<path d="M174.354 136.142C174.354 136.142 176.49 145.034 177.95 147.477C179.41 149.919 183.824 152.361 186.964 152.361" stroke="#263238" stroke-linecap="round" stroke-linejoin="round"/>
<path d="M181.104 134.049C181.104 134.049 183.454 144.337 183.846 146.26C184.237 148.182 182.941 151.835 180.763 155.516" stroke="#263238" stroke-linecap="round" stroke-linejoin="round"/>
<path d="M180.136 156.733C179.912 156.61 179.746 156.403 179.674 156.157C179.602 155.912 179.63 155.648 179.752 155.423L180.001 154.967C180.062 154.858 180.145 154.763 180.243 154.686C180.342 154.609 180.455 154.553 180.576 154.521C180.696 154.488 180.822 154.48 180.946 154.497C181.07 154.514 181.189 154.555 181.297 154.618C181.521 154.742 181.687 154.948 181.76 155.193C181.834 155.438 181.808 155.702 181.688 155.928L181.439 156.377C181.378 156.487 181.295 156.583 181.196 156.66C181.097 156.738 180.984 156.795 180.862 156.828C180.741 156.861 180.614 156.87 180.49 156.853C180.365 156.837 180.245 156.796 180.136 156.733Z" fill="#263238"/>
<path d="M188.132 152.554C188.132 152.679 188.107 152.803 188.058 152.919C188.009 153.034 187.937 153.139 187.846 153.226C187.756 153.313 187.649 153.381 187.531 153.426C187.414 153.47 187.289 153.491 187.164 153.486H186.644C186.388 153.481 186.144 153.374 185.965 153.191C185.787 153.007 185.688 152.76 185.69 152.504C185.689 152.379 185.713 152.254 185.761 152.139C185.81 152.023 185.881 151.919 185.971 151.832C186.061 151.744 186.167 151.676 186.284 151.632C186.401 151.587 186.526 151.566 186.651 151.571H187.171C187.427 151.578 187.67 151.685 187.85 151.868C188.029 152.051 188.13 152.297 188.132 152.554Z" fill="#263238"/>
<path d="M174.369 136.839L173.173 129.256C173.039 128.475 173.209 127.671 173.646 127.01C174.084 126.348 174.758 125.879 175.529 125.696C176.361 125.507 177.234 125.648 177.964 126.089C178.694 126.529 179.225 127.236 179.445 128.06L181.489 135.607" stroke="#263238" stroke-width="2" stroke-linecap="round" stroke-linejoin="round"/>
<path d="M202.513 141.964C204.227 141.792 205.456 140.051 205.258 138.075C205.06 136.099 203.51 134.637 201.797 134.808C200.083 134.98 198.854 136.721 199.052 138.697C199.25 140.673 200.8 142.135 202.513 141.964Z" fill="white" stroke="#263238" stroke-linecap="round" stroke-linejoin="round"/>
<path d="M193.757 108.117C193.757 108.117 200.613 117.765 202.799 137.43" stroke="#263238" stroke-width="2" stroke-linecap="round" stroke-linejoin="round"/>
<path d="M202.981 139.707C203.917 139.62 204.593 138.664 204.492 137.571C204.39 136.479 203.549 135.664 202.613 135.751C201.678 135.838 201.001 136.794 201.103 137.886C201.204 138.979 202.045 139.794 202.981 139.707Z" fill="white" stroke="#263238" stroke-linecap="round" stroke-linejoin="round"/>
<path d="M213.002 182.806C212.581 184.109 212.237 185.436 211.97 186.779C211.97 187.348 211.834 189.05 210.503 188.666C209.171 188.281 209.57 181.482 209.741 180.727C209.912 179.972 213.151 182.414 213.151 182.414" fill="white"/>
<path d="M213.002 182.806C212.581 184.109 212.237 185.436 211.97 186.779C211.97 187.348 211.834 189.05 210.503 188.666C209.171 188.281 209.57 181.482 209.741 180.727C209.912 179.972 213.151 182.414 213.151 182.414" stroke="#263238" stroke-linecap="round" stroke-linejoin="round"/>
<path d="M169.784 176.782C170.968 177.434 172.291 177.793 173.643 177.829C175.736 177.829 179.559 177.117 180.962 177.48C182.365 177.843 185.946 182.357 185.946 182.357C185.946 182.357 187.014 183.404 186.508 183.931C186.003 184.458 184.971 185.355 184.259 184.799C183.547 184.244 179.987 181.311 179.987 181.311L171.008 184.977L167.32 183.055L169.784 176.782Z" fill="white" stroke="#263238" stroke-linecap="round" stroke-linejoin="round"/>
<path d="M156.035 121.838C156.035 121.838 150.118 122.55 149.114 124.102C148.11 125.654 131.898 161.254 131.934 162.828C131.969 164.401 164.351 189.884 164.351 189.884L171.343 176.576L153.849 160.357L161.439 142.742" fill="white"/>
<path d="M156.035 121.838C156.035 121.838 150.118 122.55 149.114 124.102C148.11 125.654 131.898 161.254 131.934 162.828C131.969 164.401 164.351 189.884 164.351 189.884L171.343 176.576L153.849 160.357L161.439 142.742" stroke="#263238" stroke-linecap="round" stroke-linejoin="round"/>
<path d="M166.95 196.313L184.052 196.662L183.967 186.024" stroke="#263238" stroke-linecap="round" stroke-linejoin="round"/>
<path d="M171.03 184.978L166.508 186.665" stroke="#263238" stroke-linecap="round" stroke-linejoin="round"/>
<path d="M176.185 97.4158C176.185 97.4158 178.128 112.596 179.41 114.86C180.691 117.124 189.805 126.195 189.805 126.195C189.805 126.195 192.653 115.736 192.973 113.293C193.294 110.851 193.543 101.083 193.543 101.083L176.149 96.1982L176.185 97.4158Z" fill="white" stroke="#263238" stroke-linecap="round" stroke-linejoin="round"/>
<path d="M176.185 97.4158C176.185 97.4158 176.412 99.1958 176.761 101.624C178.125 102.893 179.682 103.936 181.375 104.714C183.618 105.703 189.599 106.259 193.379 105.817C193.479 103.261 193.543 101.083 193.543 101.083L176.149 96.1982L176.185 97.4158Z" fill="#263238" stroke="#263238" stroke-linecap="round" stroke-linejoin="round"/>
<path d="M171.143 84.1654C171.143 84.1654 168.815 81.7232 167.662 84.5072C166.508 87.2911 169.086 91.4848 170.46 91.6628C171.275 91.7691 172.104 91.7085 172.895 91.4848C172.895 91.4848 173.87 95.5004 174.768 96.718C176.533 98.9505 178.796 100.74 181.375 101.944C184.55 103.368 195.181 103.874 196.526 101.944C197.872 100.015 197.794 89.7332 197.772 88.8646C197.751 87.996 197.601 75.5644 197.601 75.5644C197.601 75.5644 198.555 71.2497 197.26 68.2807C195.964 65.3116 182.956 61.1607 179.687 62.8766C176.419 64.5925 172.653 67.5829 172.397 71.4206C172.14 75.2583 172.297 81.5381 172.297 81.5381L171.143 84.1654Z" fill="white" stroke="#263238" stroke-linecap="round" stroke-linejoin="round"/>
<path d="M190.367 78.7549C190.367 78.7549 192.539 88.7229 192.041 89.919C191.542 91.1152 189.983 91.1366 188.032 90.0899C186.081 89.0433 187.099 87.6478 187.099 87.6478" stroke="#263238" stroke-linecap="round" stroke-linejoin="round"/>
<path d="M182.806 90.2676C182.806 90.2676 183.746 92.8806 185.49 93.0586C187.235 93.2366 191.614 93.5784 191.614 93.5784" stroke="#263238" stroke-linecap="round" stroke-linejoin="round"/>
<path d="M176.576 79.1035L176.854 83.2901C176.854 83.2901 178.448 84.1658 182.108 84.1658C185.768 84.1658 186.971 83.2901 186.971 83.2901L186.871 79.1035C186.871 79.1035 181.56 75.9636 176.576 79.1035Z" stroke="#263238" stroke-linecap="round" stroke-linejoin="round"/>
<path d="M190.382 79.1038L191.706 83.4683C191.706 83.4683 192.247 84.1803 195.914 84.1803C199.581 84.1803 200.784 83.3046 200.784 83.3046L200.677 79.118C200.677 79.118 195.359 75.9638 190.382 79.1038Z" stroke="#263238" stroke-linecap="round" stroke-linejoin="round"/>
<path d="M186.893 79.1035H190.382" stroke="#263238" stroke-linecap="round" stroke-linejoin="round"/>
<path d="M176.597 79.1035L169.719 83.1192" stroke="#263238" stroke-linecap="round" stroke-linejoin="round"/>
<path d="M178.292 77.0098C178.292 77.0098 180.157 74.9165 184.387 76.6609" stroke="#263238" stroke-linecap="round" stroke-linejoin="round"/>
<path d="M191.022 77.0103C191.65 76.5064 192.408 76.1902 193.208 76.0983C194.008 76.0063 194.818 76.1423 195.544 76.4906" stroke="#263238" stroke-linecap="round" stroke-linejoin="round"/>
<path d="M182.749 81.0256C182.749 81.7945 182.471 82.4496 182.087 82.4496C181.703 82.4496 181.375 81.823 181.375 81.0256C181.375 80.2281 181.653 79.6016 182.044 79.6016C182.436 79.6016 182.735 80.2495 182.749 81.0256Z" fill="#263238"/>
<path d="M193.913 80.8478C193.913 81.6168 193.636 82.2718 193.251 82.2718C192.867 82.2718 192.539 81.6453 192.539 80.8478C192.539 80.0504 192.817 79.4238 193.201 79.4238C193.586 79.4238 193.892 80.0789 193.913 80.8478Z" fill="#263238"/>
<path d="M181.966 64.7138C181.966 64.7138 183.646 68.4233 181.56 69.7761C180.916 70.1486 180.186 70.3448 179.442 70.3448C178.698 70.3448 177.967 70.1486 177.324 69.7761C177.878 70.5422 178.188 71.4583 178.212 72.4038C178.236 73.3493 177.974 74.28 177.459 75.0734C176.436 76.7773 175.243 78.3733 173.899 79.8367C173.899 79.8367 174.276 84.3436 173.493 84.8705C172.71 85.3974 170.574 84.6071 170.538 83.2828C170.503 81.9584 169.648 79.3098 169.613 77.9855C169.577 76.6611 168.965 73.2151 168.965 73.2151C168.965 73.2151 163.611 70.8299 166.451 67.9178C169.292 65.0057 175.323 62.6205 175.323 62.6205C175.323 62.6205 175.458 57.3232 179.125 55.7355C182.792 54.1477 190.681 51.7625 190.745 54.4111C190.845 55.7743 190.6 57.1407 190.033 58.3841C190.033 58.3841 196.647 58.1207 201.261 62.6561C205.875 67.1916 205.718 71.3995 203.333 71.3995C200.948 71.3995 200.172 71.9263 200.172 71.9263C200.172 71.9263 204.736 74.575 202.386 75.8993C200.036 77.2236 197.616 75.6359 197.616 75.6359C197.616 75.6359 198.627 73.7847 195.651 71.3639C192.674 68.9431 181.966 64.7138 181.966 64.7138Z" fill="#263238" stroke="#263238" stroke-linecap="round" stroke-linejoin="round"/>
<path d="M91.62 332.503C112.198 332.503 128.879 328.742 128.879 324.102C128.879 319.462 112.198 315.7 91.62 315.7C71.0425 315.7 54.3611 319.462 54.3611 324.102C54.3611 328.742 71.0425 332.503 91.62 332.503Z" fill="#263238" stroke="#263238" stroke-linecap="round" stroke-linejoin="round"/>
<path d="M116.156 150.324V157.131L126.053 161.666C126.053 161.666 127.085 157.131 126.259 149.085L116.156 150.324Z" fill="#999999" stroke="#263238" stroke-linecap="round" stroke-linejoin="round"/>
<path d="M67.0349 313.664C64.7696 315.608 62.6294 317.694 60.6269 319.908C57.7789 323.119 57.2235 326.316 59.8721 327.847C62.5208 329.378 66.6789 328.979 71.2143 326.145C75.7497 323.311 75.5646 322.172 78.2133 321.232C80.8619 320.293 82.5636 318.384 82.5636 315.366C82.5636 312.347 72.916 311.962 70.8369 311.806C68.7579 311.649 67.0349 313.664 67.0349 313.664Z" fill="white" stroke="#263238" stroke-linecap="round" stroke-linejoin="round"/>
<path d="M82.542 315.366C82.542 315.366 78.27 317.26 76.1981 318.983C74.1262 320.706 69.9966 326.907 65.1692 326.907C62.7109 326.909 60.2934 326.279 58.1489 325.077C58.1521 325.651 58.3124 326.212 58.6124 326.7C58.9125 327.189 59.3407 327.585 59.8506 327.847C62.4992 329.357 66.6573 328.979 71.1928 326.145C75.7282 323.312 75.5431 322.172 78.1917 321.233C80.8404 320.293 82.542 318.392 82.542 315.366Z" stroke="#263238" stroke-linecap="round" stroke-linejoin="round"/>
<path d="M115.017 313.664C117.282 315.608 119.422 317.694 121.425 319.908C124.273 323.119 124.828 326.316 122.179 327.847C119.531 329.378 115.373 328.979 110.837 326.145C106.302 323.311 106.487 322.172 103.838 321.232C101.189 320.293 99.4878 318.384 99.4878 315.366C99.4878 312.347 109.135 311.962 111.214 311.806C113.293 311.649 115.017 313.664 115.017 313.664Z" fill="white" stroke="#263238" stroke-linecap="round" stroke-linejoin="round"/>
<path d="M99.509 315.366C99.509 315.366 103.781 317.26 105.853 318.983C107.925 320.706 112.054 326.907 116.882 326.907C119.34 326.909 121.758 326.279 123.902 325.077C123.899 325.651 123.739 326.212 123.439 326.7C123.139 327.189 122.71 327.585 122.2 327.847C119.552 329.357 115.394 328.979 110.858 326.145C106.323 323.312 106.508 322.172 103.859 321.233C101.211 320.293 99.509 318.392 99.509 315.366Z" stroke="#263238" stroke-linecap="round" stroke-linejoin="round"/>
<path d="M61.5525 206.266C61.5525 206.266 62.6846 248.808 63.2542 255.052C63.8238 261.297 65.5041 275.473 65.5041 276.256C65.5041 277.039 66.4439 308.403 66.4439 308.403L64.7423 311.251L65.3119 315.224L72.8733 316.733C76.654 317.488 81.5739 318.627 82.3286 317.872C83.0834 317.118 83.2756 315.601 83.653 313.522C84.0303 311.443 84.785 307.655 84.0303 304.636C83.2756 301.617 84.9773 269.463 85.1695 268.709C85.3618 267.954 89.7121 236.896 89.7121 236.896C89.7121 236.896 92.5601 262.429 94.6249 270.175C96.6897 277.922 95.9492 289.463 96.7039 293.999C97.4587 298.534 98.9752 313.857 99.1674 314.989C99.3597 316.121 99.7299 317.837 99.7299 317.837C99.7299 317.837 109.185 316.512 110.887 315.75C112.612 315.115 114.383 314.61 116.184 314.241C116.184 314.241 116.747 303.461 115.992 299.111C115.442 296.054 115.125 292.96 115.045 289.855C115.045 288.531 115.992 246.558 115.992 246.558L115.045 205.903C115.045 205.903 89.5198 208.552 79.6871 206.658C69.8544 204.764 61.7447 203.632 61.7447 203.632L61.5525 206.266Z" fill="#FFC100" stroke="#263238" stroke-linecap="round" stroke-linejoin="round"/>
<path d="M79.7014 206.644C69.8687 204.757 61.7447 203.632 61.7447 203.632L61.5525 206.273C61.5525 206.273 61.6166 208.716 61.7234 212.503C66.2303 213.764 75.3867 215.978 84.2368 215.978C93.5925 215.978 108.495 213.13 115.202 211.77L115.059 205.896C115.059 205.896 89.5341 208.538 79.7014 206.644Z" fill="#263238" stroke="#263238" stroke-linecap="round" stroke-linejoin="round"/>
<path d="M112.546 302.45C112.667 303.753 112.745 304.501 112.745 304.501" stroke="#263238" stroke-linecap="round" stroke-linejoin="round"/>
<path d="M109.648 216.248C109.648 216.248 110.36 252.788 110.36 266.579C110.36 276.12 111.513 290.602 112.225 298.619" stroke="#263238" stroke-linecap="round" stroke-linejoin="round"/>
<path d="M71.3779 214.184L73.101 253.828" stroke="#263238" stroke-linecap="round" stroke-linejoin="round"/>
<path d="M72.7522 256.925V263.475" stroke="#263238" stroke-linecap="round" stroke-linejoin="round"/>
<path d="M81.7162 106.401C80.7852 106.406 79.8689 106.633 79.043 107.062C78.2171 107.492 77.5055 108.112 76.9671 108.872C75.7896 110.425 74.4794 111.874 73.0511 113.201L56.1411 122.279L57.793 186.829L58.4124 208.901C58.4124 208.901 71.3993 213.229 83.7738 213.229C96.1484 213.229 118.213 208.245 118.213 208.245C118.213 208.245 116.362 122.25 116.982 122.25C117.601 122.25 104.813 111.143 99.0391 108.224C93.2648 105.305 81.7162 106.401 81.7162 106.401Z" fill="#FFC100" stroke="#263238" stroke-linecap="round" stroke-linejoin="round"/>
<path d="M76.896 114.204C76.896 114.204 83.4464 126.273 86.209 131.791C88.9715 137.309 94.1264 145.247 94.1264 145.247L102.749 122.15" stroke="#263238" stroke-linecap="round" stroke-linejoin="round"/>
<path d="M81.7377 190.752L81.4031 181.118L61.9441 179.986C61.9441 179.986 62.1363 194.169 62.5137 194.938" stroke="#263238" stroke-linecap="round" stroke-linejoin="round"/>
<path d="M81.9724 197.573L81.8799 194.867" stroke="#263238" stroke-linecap="round" stroke-linejoin="round"/>
<path d="M105.041 196.056L104.472 180.178C104.472 180.178 111.278 180.741 116.953 176.96" stroke="#263238" stroke-linecap="round" stroke-linejoin="round"/>
<path d="M75.8635 142.342C76.4616 144.229 78.2843 145.34 79.9291 144.813C81.5738 144.286 82.4068 142.328 81.8016 140.441C81.1964 138.555 79.3808 137.444 77.7361 137.971C76.0914 138.498 75.2583 140.456 75.8635 142.342Z" stroke="#263238" stroke-linecap="round" stroke-linejoin="round"/>
<path d="M76.0559 109.306C76.0559 109.306 73.87 117.707 78.8398 140.513" stroke="#263238" stroke-width="2" stroke-linecap="round" stroke-linejoin="round"/>
<path d="M80.3707 141.296C80.2241 141.592 79.9959 141.839 79.7131 142.008C79.4303 142.178 79.1048 142.263 78.7752 142.253C78.4456 142.243 78.1258 142.139 77.8537 141.952C77.5816 141.766 77.3687 141.506 77.2402 141.202C77.1117 140.898 77.0731 140.564 77.1288 140.239C77.1846 139.914 77.3325 139.612 77.5549 139.369C77.7773 139.125 78.0649 138.951 78.3835 138.866C78.7022 138.781 79.0385 138.789 79.3525 138.89C79.8048 139.076 80.1654 139.433 80.356 139.884C80.5466 140.334 80.5519 140.842 80.3707 141.296Z" stroke="#263238" stroke-linecap="round" stroke-linejoin="round"/>
<path d="M116.156 121.039C116.156 121.039 119.246 123.31 119.452 124.136C119.659 124.962 130.175 150.117 130.175 150.117L114.917 152.367L115.123 137.515" fill="#FFC100"/>
<path d="M116.156 121.039C116.156 121.039 119.246 123.31 119.452 124.136C119.659 124.962 130.175 150.117 130.175 150.117L114.917 152.367L115.123 137.515" stroke="#263238" stroke-linecap="round" stroke-linejoin="round"/>
<path d="M58.206 121.452C58.206 121.452 54.6958 121.865 53.8699 124.542C53.044 127.219 47.0703 154.446 47.0703 154.446L68.9287 152.367L66.8639 131.947" fill="#FFC100"/>
<path d="M58.206 121.452C58.206 121.452 54.6958 121.865 53.8699 124.542C53.044 127.219 47.0703 154.446 47.0703 154.446L68.9287 152.367L66.8639 131.947" stroke="#263238" stroke-linecap="round" stroke-linejoin="round"/>
<path d="M100.427 108.024C100.427 108.024 105.846 111.114 106.38 118.804C106.914 126.494 106.38 128.445 106.38 128.445" stroke="#263238" stroke-width="2" stroke-linecap="round" stroke-linejoin="round"/>
<path d="M108.829 138.291C108.829 138.291 108.345 147.383 107.355 150.011C106.366 152.638 102.45 155.749 99.3455 156.248" stroke="#263238" stroke-linecap="round" stroke-linejoin="round"/>
<path d="M101.816 137.309C101.816 137.309 101.382 147.796 101.339 149.747C101.296 151.698 103.261 155.094 106.081 158.348" stroke="#263238" stroke-linecap="round" stroke-linejoin="round"/>
<path d="M106.89 159.49L106.972 159.423C107.36 159.109 107.42 158.539 107.105 158.151L106.706 157.659C106.392 157.271 105.822 157.212 105.434 157.526L105.351 157.593C104.963 157.908 104.904 158.477 105.219 158.865L105.618 159.358C105.932 159.745 106.502 159.805 106.89 159.49Z" fill="#263238"/>
<path d="M98.2307 156.58L98.2506 156.685C98.3436 157.175 98.8167 157.498 99.3074 157.405L99.93 157.287C100.421 157.194 100.743 156.721 100.65 156.23L100.63 156.125C100.537 155.635 100.064 155.312 99.5734 155.405L98.9508 155.523C98.4601 155.616 98.1377 156.089 98.2307 156.58Z" fill="#263238"/>
<path d="M108.936 138.982L108.729 131.342C108.71 130.545 108.395 129.784 107.844 129.208C107.294 128.631 106.548 128.28 105.753 128.224C104.909 128.161 104.074 128.435 103.431 128.986C102.788 129.537 102.389 130.32 102.321 131.164L101.681 138.911" stroke="#263238" stroke-width="2" stroke-linecap="round" stroke-linejoin="round"/>
<path d="M126.672 156.511L121.752 155.479L104.429 152.595L80.1355 147.967L74.3754 145.425C74.3754 145.425 68.9286 138.305 68.4587 137.593C67.9888 136.881 61.83 139.366 62.0507 140.313C62.2714 141.26 62.9977 150.723 63.4747 151.321C63.9518 151.919 69.2704 151.912 69.2704 151.912C69.2704 151.912 94.6461 164.158 95.6998 164.607C110.346 170.78 117.409 170.723 119.908 171.128C122.407 171.534 124.037 170.523 125.476 168.871C126.914 167.22 126.672 156.511 126.672 156.511Z" fill="#999999" stroke="#263238" stroke-linecap="round" stroke-linejoin="round"/>
<path d="M67.7184 137.494C67.7184 137.494 64.7636 137.615 60.3848 140.57C58.7543 141.674 57.8999 142.464 57.8999 142.941C57.9932 143.508 58.1533 144.063 58.3769 144.593C61.2159 143.226 64.189 142.157 67.2485 141.403" fill="#999999"/>
<path d="M67.7184 137.494C67.7184 137.494 64.7636 137.615 60.3848 140.57C58.7543 141.674 57.8999 142.464 57.8999 142.941C57.9932 143.508 58.1533 144.063 58.3769 144.593C61.2159 143.226 64.189 142.157 67.2485 141.403" stroke="#263238" stroke-linecap="round" stroke-linejoin="round"/>
<path d="M68.9001 145.069C68.9001 145.069 60.8616 147.077 59.5587 147.319C58.2557 147.561 58.0208 146.251 58.0208 145.781C58.0208 145.311 58.3768 144.592 59.7936 143.887C61.2105 143.182 68.3376 141.281 68.3376 141.281" fill="#999999"/>
<path d="M68.9001 145.069C68.9001 145.069 60.8616 147.077 59.5587 147.319C58.2557 147.561 58.0208 146.251 58.0208 145.781C58.0208 145.311 58.3768 144.592 59.7936 143.887C61.2105 143.182 68.3376 141.281 68.3376 141.281" stroke="#263238" stroke-linecap="round" stroke-linejoin="round"/>
<path d="M69.7334 148.736C69.7334 148.736 60.3848 149.683 59.6728 149.092C59.4549 148.855 59.2897 148.574 59.1878 148.269C59.086 147.963 59.0499 147.64 59.0818 147.319L67.4834 145.539" fill="#999999"/>
<path d="M69.7334 148.736C69.7334 148.736 60.3848 149.683 59.6728 149.092C59.4549 148.855 59.2897 148.574 59.1878 148.269C59.086 147.963 59.0499 147.64 59.0818 147.319L67.4834 145.539" stroke="#263238" stroke-linecap="round" stroke-linejoin="round"/>
<path d="M67.1274 149.206L59.9148 149.562C59.9148 149.562 60.2637 150.63 60.6268 150.744C62.3355 151.166 64.0764 151.445 65.8315 151.577C66.9824 151.615 68.1292 151.734 69.2634 151.933" fill="#999999"/>
<path d="M67.1274 149.206L59.9148 149.562C59.9148 149.562 60.2637 150.63 60.6268 150.744C62.3355 151.166 64.0764 151.445 65.8315 151.577C66.9824 151.615 68.1292 151.734 69.2634 151.933" stroke="#263238" stroke-linecap="round" stroke-linejoin="round"/>
<path d="M51.6057 154.033C51.6057 154.033 54.9023 168.273 55.7282 169.299C56.5541 170.324 63.3608 169.299 70.1676 167.234C76.9743 165.169 105.846 152.802 105.846 152.802L109.968 153.62C109.968 153.62 108.317 148.466 105.433 148.259C102.549 148.053 68.9287 152.367 68.9287 152.367L51.6057 154.033Z" fill="#999999" stroke="#263238" stroke-linecap="round" stroke-linejoin="round"/>
<path d="M80.4561 97.3232C80.4561 97.3232 80.4561 97.6294 80.4561 98.1492C80.5201 100.862 80.7836 109.477 81.4742 111.556C82.3001 114.027 93.4358 134.86 94.2902 133.208C95.1446 131.556 100.271 109.078 100.271 109.078V100.214C100.271 100.214 97.5868 102.478 92.6384 102.478C87.69 102.478 80.4561 97.3232 80.4561 97.3232Z" fill="#999999" stroke="#263238" stroke-linecap="round" stroke-linejoin="round"/>
<path d="M96.9745 109.541C98.1292 108.836 99.2331 108.051 100.278 107.192V100.214C100.278 100.214 97.5939 102.478 92.6455 102.478C87.6971 102.478 80.4561 97.3232 80.4561 97.3232C80.4561 97.3232 80.4561 97.6294 80.4561 98.1492C80.4561 99.1032 80.5273 100.791 80.6127 102.67C80.808 102.983 81.027 103.281 81.2677 103.56C82.6917 105.205 89.5127 109.335 91.1645 109.748C92.8164 110.161 95.1161 110.566 96.9745 109.541Z" fill="#263238" stroke="#263238" stroke-linecap="round" stroke-linejoin="round"/>
<path d="M105.227 85.3616C105.227 85.3616 108.523 83.5033 108.523 87.0135C108.523 90.5236 105.433 94.6461 105.433 94.6461L105.227 85.3616Z" fill="#999999" stroke="#263238" stroke-linecap="round" stroke-linejoin="round"/>
<path d="M75.7354 85.5677C75.7354 85.5677 71.1929 84.3288 71.1929 88.4584C71.1929 92.588 75.3225 95.258 75.3225 95.258H78.1705C78.1705 95.258 79.8223 99.3876 81.2677 101.032C82.713 102.677 89.5126 106.807 91.1645 107.22C92.8163 107.633 95.0805 108.046 96.9388 107.013C99.2735 105.558 101.425 103.827 103.347 101.858C104.173 100.833 105.618 93.8198 105.618 93.8198C105.618 93.8198 106.031 81.2387 105.205 76.9098C104.379 72.5808 99.0178 65.7741 91.5917 64.9482C84.1655 64.1222 77.1523 70.103 76.127 74.845C75.1018 79.5869 75.7354 85.5677 75.7354 85.5677Z" fill="#999999" stroke="#263238" stroke-linecap="round" stroke-linejoin="round"/>
<path d="M89.1354 88.8711C89.1354 88.8711 87.7114 91.7547 90.1678 92.5806C92.6242 93.4065 95.7356 93.2001 96.355 91.9612C96.9745 90.7223 95.9421 89.2841 95.9421 89.2841" stroke="#263238" stroke-linecap="round" stroke-linejoin="round"/>
<path d="M86.6646 94.0264C86.6646 94.0264 91.8194 98.3553 98.8326 94.2329" stroke="#263238" stroke-linecap="round" stroke-linejoin="round"/>
<path d="M89.5483 97.9423C89.5483 97.9423 93.8844 100.42 96.768 97.5293" stroke="#263238" stroke-linecap="round" stroke-linejoin="round"/>
<path d="M87.0776 86.3935C87.6477 86.3935 88.11 85.654 88.11 84.7417C88.11 83.8294 87.6477 83.0898 87.0776 83.0898C86.5074 83.0898 86.0452 83.8294 86.0452 84.7417C86.0452 85.654 86.5074 86.3935 87.0776 86.3935Z" fill="#263238"/>
<path d="M98.2132 84.5353C98.2132 85.4467 97.7504 86.1872 97.1808 86.1872C96.6112 86.1872 96.1484 85.4752 96.1484 84.5353C96.1484 83.5955 96.6112 82.8906 97.1808 82.8906C97.7504 82.8906 98.2132 83.624 98.2132 84.5353Z" fill="#263238"/>
<path d="M84.1868 82.478C84.1868 82.478 85.2192 80.8262 89.1708 81.4456" stroke="#263238" stroke-linecap="round" stroke-linejoin="round"/>
<path d="M95.5291 81.652C95.5291 81.652 97.3874 78.7612 100.278 81.652" stroke="#263238" stroke-linecap="round" stroke-linejoin="round"/>
<path d="M105.227 76.8955C104.959 75.6708 104.495 74.4975 103.852 73.4209C103.612 74.5624 103.528 75.7313 103.603 76.8955C103.902 78.4049 104.963 80.5124 104.963 81.5662C104.963 82.6199 104.806 86.8421 105.561 86.244C105.636 86.165 105.696 86.0734 105.739 85.9735C105.786 82.9391 105.615 79.9052 105.227 76.8955Z" fill="#263238" stroke="#263238" stroke-linecap="round" stroke-linejoin="round"/>
<path d="M94.8597 68.3511C96.1837 68.2809 97.5016 68.1216 98.8042 67.874C96.7005 66.2992 94.2213 65.3026 91.613 64.9833C84.1868 64.1574 77.1736 70.1382 76.1483 74.8801C75.123 79.622 75.7354 85.6028 75.7354 85.6028C75.7354 85.6028 77.373 86.742 77.9782 85.5388C78.5834 84.3355 77.9782 82.3704 78.5834 80.2628C79.1886 78.1553 80.0857 77.0944 80.2352 75.4355C80.3847 73.7765 79.331 71.37 79.9362 70.01C80.5414 68.6501 84.3078 66.094 86.7215 66.9983C89.3184 67.9818 92.0843 68.4416 94.8597 68.3511Z" fill="#263238" stroke="#263238" stroke-linecap="round" stroke-linejoin="round"/>
</svg>
