<svg width="33" height="33" viewBox="0 0 33 33" fill="none" xmlns="http://www.w3.org/2000/svg">
<path d="M27.9133 26.2344C27.4656 26.3672 27.2159 26.8622 27.0038 27.2448C26.8105 27.5935 26.4389 28.0011 26.4385 28.4083C26.4385 28.5411 26.5732 28.6446 26.7049 28.6073C27.1013 28.4957 27.3989 28.0367 27.6858 27.7606C28.0026 27.4552 28.426 27.0819 28.4332 26.6225C28.4371 26.3655 28.1668 26.1593 27.9133 26.2344Z" fill="white"/>
<path d="M32.7077 17.3242C34.6499 9.54385 26.5461 1.67654 19.173 0.292007C15.1211 -0.468976 10.9054 0.255528 7.44827 2.48758C4.47989 4.40446 1.44352 7.81234 1.07022 11.4158C1.0621 11.4947 1.08562 11.5596 1.12196 11.6156C-1.21529 17.5681 1.33149 25.0515 6.45966 28.8268C11.5451 32.5706 19.9029 33.8843 25.3103 29.9725C25.7666 29.6425 25.3851 28.9837 24.8639 29.2238C24.6676 29.3141 24.4718 29.4036 24.2764 29.4915C24.1772 29.3218 23.9741 29.2128 23.7184 29.3332C20.1188 31.0274 15.1202 30.171 11.5618 28.9124C11.1607 28.7703 10.884 29.4062 11.2697 29.5916C13.1648 30.5023 15.2254 31.0384 17.3352 31.1496C18.2173 31.1958 19.102 31.1644 19.9803 31.0724C18.6385 31.4058 17.2505 31.5619 15.7595 31.4278C12.7295 31.1551 10.0502 30.0365 7.54491 28.3758C4.60859 26.4293 2.60359 24.0572 1.65261 20.6642C0.828632 17.7242 0.785017 14.6281 1.6958 11.7182C1.73557 11.6902 1.77106 11.6554 1.79586 11.6088C1.95492 11.3118 2.10971 11.0196 2.26408 10.729C1.36398 13.0311 1.09802 15.5851 1.5021 18.0224C2.26792 22.6409 4.89124 25.6937 8.75501 28.1994C9.21852 28.5001 9.68247 27.7269 9.19073 27.4685C5.76183 25.6666 3.0423 21.5635 2.46676 17.8158C1.83092 13.6741 3.34889 9.79072 5.83195 6.49355C6.04404 6.2119 5.59463 5.90521 5.35219 6.13088C4.94469 6.5101 4.56755 6.91604 4.22076 7.34362C4.79032 6.4961 5.42616 5.69694 6.19028 4.95589C6.01625 5.24646 6.29504 5.68803 6.64823 5.46321C7.55089 4.88845 8.42148 4.2789 9.35792 3.75546C10.0245 3.38302 10.7361 3.0844 11.4207 2.74378C11.5305 2.77899 11.6597 2.78535 11.8076 2.74802C16.7755 1.49584 21.7219 2.03667 25.5938 5.63798C25.7443 5.77796 25.9295 5.71476 26.0201 5.58835C25.9846 5.76778 26.083 5.9769 26.3241 5.9769C26.744 5.9769 26.7449 5.33681 26.3241 5.33681C26.2061 5.33681 26.1249 5.38941 26.0731 5.46194C26.0821 5.38983 26.0625 5.31263 25.9962 5.24349C24.704 3.89247 23.0753 2.76329 21.2853 1.97177C26.5208 3.87338 30.8725 8.52242 31.4994 13.8892C31.1081 12.1738 30.3893 10.5178 29.3306 9.01956C29.0629 8.64076 28.466 8.96993 28.6939 9.38436C30.1007 11.9371 30.7652 14.7295 30.8584 17.6216C30.9554 20.643 29.7719 23.2191 28.1534 25.7116C27.9888 25.9652 28.3693 26.2749 28.5797 26.0653C28.6764 26.115 28.7991 26.1158 28.9013 26.0212C31.2394 23.86 32.9498 20.6154 32.7197 17.3726C32.7184 17.3547 32.7107 17.3412 32.7077 17.3242Z" fill="white"/>
<path d="M9.98792 28.5847C9.88573 28.8226 10.0221 29.0597 10.2607 29.142C10.4352 29.2018 10.596 29.2621 10.7798 29.2846C11.0963 29.3236 11.2138 28.896 11.0257 28.703C10.9013 28.5758 10.7341 28.4854 10.5853 28.3874C10.3745 28.2479 10.0799 28.3713 9.98792 28.5847Z" fill="white"/>
<path d="M24.9173 12.4466C24.9173 12.4466 24.7501 11.2237 24.237 10.6858C23.5849 9.98038 22.8541 9.97571 22.5202 9.93499C20.1192 9.75684 16.5214 9.75684 16.5214 9.75684H16.5137C16.5137 9.75684 12.9137 9.75683 10.5154 9.93626C10.1801 9.97614 9.45063 9.9808 8.79726 10.6866C8.28457 11.2245 8.11695 12.4478 8.11695 12.4478C8.11695 12.4478 7.94507 13.8824 7.94507 15.3179V15.4905V16.6621C7.94507 18.0984 8.11695 19.5334 8.11695 19.5334C8.11695 19.5334 8.28457 20.7559 8.79726 21.2933C9.45063 22 10.308 21.9775 10.6885 22.0505C12.0603 22.1862 16.518 22.2291 16.518 22.2291C16.518 22.2291 20.1201 22.2227 22.521 22.0441C22.855 22.0026 23.5857 21.9996 24.2378 21.2925C24.7514 20.7546 24.9181 19.5325 24.9181 19.5325C24.9181 19.5325 25.0905 18.098 25.0905 16.6617V15.5647V15.317C25.0896 13.8816 24.9173 12.4466 24.9173 12.4466ZM19.3782 15.8116L14.7477 18.2935L14.7464 14.4725V13.3111L16.8348 14.4385L19.3782 15.8116Z" fill="url(#paint0_linear_413_42)"/>
<defs>
<linearGradient id="paint0_linear_413_42" x1="16.5181" y1="-21.3517" x2="16.5181" y2="130.619" gradientUnits="userSpaceOnUse">
<stop stop-color="white"/>
<stop offset="0.1267" stop-color="#FCFCFC"/>
<stop offset="0.3476" stop-color="#E8D594"/>
<stop offset="0.6362" stop-color="#FADA67"/>
<stop offset="0.9782" stop-color="#FFC700"/>
<stop offset="1"/>
</linearGradient>
</defs>
</svg>
