<svg width="34" height="33" viewBox="0 0 34 33" fill="none" xmlns="http://www.w3.org/2000/svg">
<path d="M28.5485 26.2344C28.1008 26.3672 27.8511 26.8622 27.639 27.2448C27.4457 27.5935 27.0742 28.0011 27.0737 28.4083C27.0737 28.5411 27.2084 28.6446 27.3401 28.6073C27.7365 28.4957 28.0341 28.0367 28.321 27.7606C28.6379 27.4552 29.0612 27.0819 29.0685 26.6225C29.0723 26.3655 28.8021 26.1593 28.5485 26.2344Z" fill="white"/>
<path d="M33.3437 17.3242C35.2859 9.54385 27.182 1.67654 19.809 0.292007C15.7571 -0.468976 11.5414 0.255528 8.08426 2.48758C5.11587 4.40446 2.0795 7.81234 1.70621 11.4158C1.69809 11.4947 1.7216 11.5596 1.75795 11.6156C-0.579299 17.5681 1.96747 25.0515 7.09565 28.8268C12.1811 32.5706 20.5389 33.8843 25.9463 29.9725C26.4025 29.6425 26.0211 28.9837 25.4999 29.2238C25.3036 29.3141 25.1078 29.4036 24.9124 29.4915C24.8132 29.3218 24.61 29.2128 24.3543 29.3332C20.7548 31.0274 15.7562 30.171 12.1977 28.9124C11.7967 28.7703 11.52 29.4062 11.9057 29.5916C13.8008 30.5023 15.8614 31.0384 17.9712 31.1496C18.8533 31.1958 19.738 31.1644 20.6163 31.0724C19.2745 31.4058 17.8865 31.5619 16.3955 31.4278C13.3655 31.1551 10.6862 30.0365 8.18089 28.3758C5.24458 26.4293 3.23958 24.0572 2.2886 20.6642C1.46462 17.7242 1.421 14.6281 2.33179 11.7182C2.37155 11.6902 2.40704 11.6554 2.43184 11.6088C2.59091 11.3118 2.7457 11.0196 2.90006 10.729C1.99997 13.0311 1.734 15.5851 2.13808 18.0224C2.90391 22.6409 5.52722 25.6937 9.391 28.1994C9.85451 28.5001 10.3185 27.7269 9.82672 27.4685C6.39781 25.6666 3.67829 21.5635 3.10274 17.8158C2.46691 13.6741 3.98488 9.79072 6.46794 6.49355C6.68003 6.2119 6.23062 5.90521 5.98817 6.13088C5.58067 6.5101 5.20353 6.91604 4.85675 7.34362C5.42631 6.4961 6.06215 5.69694 6.82626 4.95589C6.65223 5.24646 6.93103 5.68803 7.28422 5.46321C8.18688 4.88845 9.05747 4.2789 9.99391 3.75546C10.6605 3.38302 11.3721 3.0844 12.0566 2.74378C12.1665 2.77899 12.2957 2.78535 12.4436 2.74802C17.4114 1.49584 22.3579 2.03667 26.2298 5.63798C26.3803 5.77796 26.5655 5.71476 26.6561 5.58835C26.6206 5.76778 26.719 5.9769 26.9601 5.9769C27.38 5.9769 27.3809 5.33681 26.9601 5.33681C26.8421 5.33681 26.7609 5.38941 26.7091 5.46194C26.7181 5.38983 26.6984 5.31263 26.6322 5.24349C25.34 3.89247 23.7112 2.76329 21.9213 1.97177C27.1568 3.87338 31.5085 8.52242 32.1353 13.8892C31.7441 12.1738 31.0253 10.5178 29.9666 9.01956C29.6989 8.64076 29.102 8.96993 29.3299 9.38436C30.7367 11.9371 31.4012 14.7295 31.4944 17.6216C31.5914 20.643 30.4078 23.2191 28.7894 25.7116C28.6248 25.9652 29.0053 26.2749 29.2157 26.0653C29.3123 26.115 29.4351 26.1158 29.5373 26.0212C31.8754 23.86 33.5858 20.6154 33.3557 17.3726C33.3544 17.3547 33.3467 17.3412 33.3437 17.3242Z" fill="white"/>
<path d="M10.6239 28.5847C10.5217 28.8226 10.6581 29.0597 10.8967 29.142C11.0712 29.2018 11.232 29.2621 11.4158 29.2846C11.7322 29.3236 11.8498 28.896 11.6617 28.703C11.5373 28.5758 11.3701 28.4854 11.2213 28.3874C11.0105 28.2479 10.7158 28.3713 10.6239 28.5847Z" fill="white"/>
<path d="M9.86353 16.4278V23.6448H13.3305V15.8475V13.8203H9.86353V16.4278Z" fill="url(#paint0_linear_413_38)"/>
<path d="M11.597 8.9082C10.6396 8.9082 9.86353 9.67809 9.86353 10.6274C9.86353 11.5772 10.64 12.3466 11.597 12.3466C12.5544 12.3466 13.3301 11.5772 13.3301 10.6274C13.3305 9.67767 12.5544 8.9082 11.597 8.9082Z" fill="url(#paint1_linear_413_38)"/>
<path d="M24.644 16.8376C24.4093 14.9857 23.5519 13.8213 21.0283 13.8213C19.5312 13.8213 18.526 14.3727 18.115 15.1469H18.0723V13.8213H15.3113V15.7064V23.6458H18.1971V18.7766C18.1971 17.4922 18.4417 16.2489 20.0426 16.2489C21.6205 16.2489 21.7475 17.717 21.7475 18.8593V23.6458H24.7193V18.2468C24.7197 17.7429 24.6992 17.2712 24.644 16.8376Z" fill="url(#paint2_linear_413_38)"/>
<defs>
<linearGradient id="paint0_linear_413_38" x1="11.5971" y1="-10.6842" x2="11.5971" y2="109.025" gradientUnits="userSpaceOnUse">
<stop stop-color="white"/>
<stop offset="0.1267" stop-color="#FCFCFC"/>
<stop offset="0.3476" stop-color="#E8D594"/>
<stop offset="0.6362" stop-color="#FADA67"/>
<stop offset="0.9782" stop-color="#FFC700"/>
<stop offset="1"/>
</linearGradient>
<linearGradient id="paint1_linear_413_38" x1="11.5969" y1="0.332011" x2="11.5969" y2="42.2283" gradientUnits="userSpaceOnUse">
<stop stop-color="white"/>
<stop offset="0.1267" stop-color="#FCFCFC"/>
<stop offset="0.3476" stop-color="#E8D594"/>
<stop offset="0.6362" stop-color="#FADA67"/>
<stop offset="0.9782" stop-color="#FFC700"/>
<stop offset="1"/>
</linearGradient>
<linearGradient id="paint2_linear_413_38" x1="20.0157" y1="-10.6832" x2="20.0157" y2="109.026" gradientUnits="userSpaceOnUse">
<stop stop-color="white"/>
<stop offset="0.1267" stop-color="#FCFCFC"/>
<stop offset="0.3476" stop-color="#E8D594"/>
<stop offset="0.6362" stop-color="#FADA67"/>
<stop offset="0.9782" stop-color="#FFC700"/>
<stop offset="1"/>
</linearGradient>
</defs>
</svg>
