<svg width="33" height="33" viewBox="0 0 33 33" fill="none" xmlns="http://www.w3.org/2000/svg">
<path d="M27.8693 26.2344C27.4216 26.3672 27.1719 26.8622 26.9598 27.2448C26.7665 27.5935 26.395 28.0011 26.3945 28.4083C26.3945 28.5411 26.5292 28.6446 26.6609 28.6073C27.0573 28.4957 27.3549 28.0367 27.6418 27.7606C27.9587 27.4552 28.382 27.0819 28.3893 26.6225C28.3931 26.3655 28.1229 26.1593 27.8693 26.2344Z" fill="white"/>
<path d="M32.6633 17.3242C34.6055 9.54385 26.5016 1.67654 19.1286 0.292007C15.0766 -0.468976 10.861 0.255528 7.40384 2.48758C4.43545 4.40446 1.39908 7.81234 1.02579 11.4158C1.01767 11.4947 1.04118 11.5596 1.07753 11.6156C-1.25972 17.5681 1.28705 25.0515 6.41523 28.8268C11.5006 32.5706 19.8585 33.8843 25.2659 29.9725C25.7221 29.6425 25.3407 28.9837 24.8195 29.2238C24.6232 29.3141 24.4274 29.4036 24.2319 29.4915C24.1327 29.3218 23.9296 29.2128 23.6739 29.3332C20.0744 31.0274 15.0758 30.171 11.5173 28.9124C11.1162 28.7703 10.8396 29.4062 11.2253 29.5916C13.1204 30.5023 15.181 31.0384 17.2908 31.1496C18.1729 31.1958 19.0576 31.1644 19.9359 31.0724C18.5941 31.4058 17.2061 31.5619 15.7151 31.4278C12.6851 31.1551 10.0058 30.0365 7.50047 28.3758C4.56416 26.4293 2.55916 24.0572 1.60818 20.6642C0.784198 17.7242 0.740584 14.6281 1.65137 11.7182C1.69113 11.6902 1.72662 11.6554 1.75142 11.6088C1.91049 11.3118 2.06528 11.0196 2.21964 10.729C1.31955 13.0311 1.05358 15.5851 1.45766 18.0224C2.22349 22.6409 4.8468 25.6937 8.71058 28.1994C9.17409 28.5001 9.63803 27.7269 9.1463 27.4685C5.71739 25.6666 2.99787 21.5635 2.42232 17.8158C1.78649 13.6741 3.30446 9.79072 5.78752 6.49355C5.99961 6.2119 5.5502 5.90521 5.30775 6.13088C4.90025 6.5101 4.52311 6.91604 4.17633 7.34362C4.74589 6.4961 5.38173 5.69694 6.14584 4.95589C5.97181 5.24646 6.25061 5.68803 6.6038 5.46321C7.50646 4.88845 8.37705 4.2789 9.31349 3.75546C9.98011 3.38302 10.6916 3.0844 11.3762 2.74378C11.4861 2.77899 11.6152 2.78535 11.7632 2.74802C16.731 1.49584 21.6775 2.03667 25.5494 5.63798C25.6999 5.77796 25.885 5.71476 25.9757 5.58835C25.9402 5.76778 26.0385 5.9769 26.2797 5.9769C26.6996 5.9769 26.7005 5.33681 26.2797 5.33681C26.1617 5.33681 26.0804 5.38941 26.0287 5.46194C26.0377 5.38983 26.018 5.31263 25.9517 5.24349C24.6595 3.89247 23.0308 2.76329 21.2409 1.97177C26.4764 3.87338 30.8281 8.52242 31.4549 13.8892C31.0637 12.1738 30.3449 10.5178 29.2861 9.01956C29.0185 8.64076 28.4215 8.96993 28.6495 9.38436C30.0562 11.9371 30.7207 14.7295 30.8139 17.6216C30.911 20.643 29.7274 23.2191 28.109 25.7116C27.9443 25.9652 28.3249 26.2749 28.5353 26.0653C28.6319 26.115 28.7546 26.1158 28.8568 26.0212C31.1949 23.86 32.9053 20.6154 32.6753 17.3726C32.674 17.3547 32.6663 17.3412 32.6633 17.3242Z" fill="white"/>
<path d="M9.94349 28.5847C9.84129 28.8226 9.9777 29.0597 10.2163 29.142C10.3908 29.2018 10.5515 29.2621 10.7354 29.2846C11.0518 29.3236 11.1694 28.896 10.9813 28.703C10.8568 28.5758 10.6896 28.4854 10.5408 28.3874C10.33 28.2479 10.0354 28.3713 9.94349 28.5847Z" fill="white"/>
<path d="M16.9314 23.6822C15.7141 23.6822 14.885 23.7038 14.0576 23.6758C13.3152 23.6508 12.5674 23.6516 11.8392 23.4663C10.9014 23.2275 10.0929 22.7821 9.46601 22.0334C8.85155 21.2991 8.54454 20.4448 8.43978 19.5095C8.36067 18.8062 8.33244 18.0999 8.33202 17.3928C8.33116 16.0007 8.32303 14.6081 8.33543 13.2159C8.34185 12.5232 8.36024 11.8288 8.46757 11.1417C8.66598 9.87335 9.25264 8.83156 10.3285 8.09433C10.9767 7.65021 11.7092 7.40885 12.49 7.32699C14.1781 7.1501 15.8727 7.23282 17.5647 7.21585C18.2869 7.20864 19.0096 7.21246 19.7313 7.24597C20.4993 7.28117 21.263 7.34013 21.9942 7.61416C22.7959 7.91448 23.4553 8.39508 23.9637 9.07801C24.5102 9.81185 24.78 10.6505 24.8484 11.548C25.0113 13.6855 24.9279 15.8272 24.9228 17.9672C24.9215 18.6217 24.8997 19.2813 24.7697 19.9294C24.5795 20.88 24.1814 21.7186 23.4604 22.3948C22.8755 22.9433 22.1858 23.2822 21.4105 23.4663C20.9393 23.5783 20.4604 23.6105 19.9776 23.6398C18.8325 23.7089 17.6874 23.6686 16.9314 23.6822ZM23.4061 15.4518C23.4087 14.4384 23.4219 13.425 23.377 12.4125C23.3548 11.9069 23.3283 11.4004 23.1812 10.9096C23.029 10.4002 22.7741 9.95607 22.3773 9.59212C21.8223 9.08268 21.1428 8.88246 20.4155 8.81332C19.6368 8.73909 18.8539 8.73739 18.0723 8.73357C16.7382 8.72679 15.4036 8.71661 14.0695 8.75393C13.5363 8.76878 13.0027 8.77811 12.475 8.86592C11.7177 8.99232 11.0674 9.31216 10.5859 9.9234C10.1651 10.4575 10.0044 11.0848 9.93808 11.744C9.87394 12.3803 9.87223 13.0199 9.86453 13.6579C9.84572 15.26 9.84058 16.8622 9.8889 18.4639C9.90301 18.9279 9.9338 19.392 10.0463 19.848C10.2049 20.4911 10.526 21.031 11.0456 21.4459C11.5339 21.8361 12.1141 22.0113 12.7239 22.0868C13.3541 22.1649 13.9904 22.1674 14.6245 22.1708C16.2764 22.1793 17.9282 22.1984 19.5796 22.1475C20.0024 22.1343 20.4249 22.1123 20.8418 22.0342C21.4999 21.9112 22.0853 21.6504 22.5462 21.1494C22.9443 20.7167 23.1564 20.1996 23.2676 19.6346C23.4006 18.9585 23.3818 18.2717 23.4018 17.5888C23.4224 16.8766 23.4061 16.164 23.4061 15.4518Z" fill="url(#paint0_linear_413_40)"/>
<path d="M16.6135 19.6876C14.2976 19.7025 12.3413 17.8004 12.358 15.4187C12.3743 13.0882 14.2813 11.2103 16.6554 11.2129C19.0054 11.2154 20.8997 13.1132 20.9091 15.4471C20.9181 17.7869 18.9858 19.722 16.6135 19.6876ZM16.6361 18.1729C18.1464 18.1712 19.3813 16.9504 19.3736 15.4522C19.3659 13.9378 18.1708 12.7459 16.634 12.734C15.1241 12.7221 13.8785 13.9658 13.8944 15.4683C13.9102 16.9771 15.1173 18.1589 16.6361 18.1729Z" fill="url(#paint1_linear_413_40)"/>
<path d="M22.0649 11.0674C22.0645 11.6226 21.6164 12.071 21.0613 12.0706C20.5063 12.0702 20.0394 11.6133 20.0415 11.0742C20.0441 10.5096 20.4935 10.0608 21.0545 10.0625C21.633 10.0642 22.0649 10.4939 22.0649 11.0674Z" fill="url(#paint2_linear_413_40)"/>
<defs>
<linearGradient id="paint0_linear_413_40" x1="16.639" y1="-33.8919" x2="16.639" y2="166.903" gradientUnits="userSpaceOnUse">
<stop stop-color="white"/>
<stop offset="0.1267" stop-color="#FCFCFC"/>
<stop offset="0.3476" stop-color="#E8D594"/>
<stop offset="0.6362" stop-color="#FADA67"/>
<stop offset="0.9782" stop-color="#FFC700"/>
<stop offset="1"/>
</linearGradient>
<linearGradient id="paint1_linear_413_40" x1="16.6337" y1="-9.92614" x2="16.6337" y2="93.3419" gradientUnits="userSpaceOnUse">
<stop stop-color="white"/>
<stop offset="0.1267" stop-color="#FCFCFC"/>
<stop offset="0.3476" stop-color="#E8D594"/>
<stop offset="0.6362" stop-color="#FADA67"/>
<stop offset="0.9782" stop-color="#FFC700"/>
<stop offset="1"/>
</linearGradient>
<linearGradient id="paint2_linear_413_40" x1="21.0532" y1="5.05389" x2="21.0532" y2="29.5219" gradientUnits="userSpaceOnUse">
<stop stop-color="white"/>
<stop offset="0.1267" stop-color="#FCFCFC"/>
<stop offset="0.3476" stop-color="#E8D594"/>
<stop offset="0.6362" stop-color="#FADA67"/>
<stop offset="0.9782" stop-color="#FFC700"/>
<stop offset="1"/>
</linearGradient>
</defs>
</svg>
