<svg width="33" height="33" viewBox="0 0 33 33" fill="none" xmlns="http://www.w3.org/2000/svg">
<path d="M27.7529 26.2344C27.3052 26.3672 27.0555 26.8622 26.8434 27.2448C26.6501 27.5935 26.2785 28.0011 26.2781 28.4083C26.2781 28.5411 26.4128 28.6446 26.5445 28.6073C26.9409 28.4957 27.2385 28.0367 27.5254 27.7606C27.8422 27.4552 28.2656 27.0819 28.2728 26.6225C28.2767 26.3655 28.0064 26.1593 27.7529 26.2344Z" fill="white"/>
<path d="M32.5481 17.3242C34.4902 9.54385 26.3864 1.67654 19.0133 0.292007C14.9614 -0.468976 10.7457 0.255528 7.2886 2.48758C4.32022 4.40446 1.28385 7.81234 0.910557 11.4158C0.902432 11.4947 0.925949 11.5596 0.962295 11.6156C-1.37495 17.5681 1.17182 25.0515 6.3 28.8268C11.3854 32.5706 19.7432 33.8843 25.1506 29.9725C25.6069 29.6425 25.2255 28.9837 24.7042 29.2238C24.508 29.3141 24.3121 29.4036 24.1167 29.4915C24.0175 29.3218 23.8144 29.2128 23.5587 29.3332C19.9592 31.0274 14.9606 30.171 11.4021 28.9124C11.001 28.7703 10.7243 29.4062 11.11 29.5916C13.0052 30.5023 15.0657 31.0384 17.1755 31.1496C18.0576 31.1958 18.9423 31.1644 19.8206 31.0724C18.4788 31.4058 17.0908 31.5619 15.5998 31.4278C12.5699 31.1551 9.89053 30.0365 7.38524 28.3758C4.44893 26.4293 2.44392 24.0572 1.49294 20.6642C0.668964 17.7242 0.625349 14.6281 1.53613 11.7182C1.5759 11.6902 1.61139 11.6554 1.63619 11.6088C1.79526 11.3118 1.95005 11.0196 2.10441 10.729C1.20432 13.0311 0.93835 15.5851 1.34243 18.0224C2.10826 22.6409 4.73157 25.6937 8.59534 28.1994C9.05886 28.5001 9.5228 27.7269 9.03106 27.4685C5.60216 25.6666 2.88264 21.5635 2.30709 17.8158C1.67125 13.6741 3.18922 9.79072 5.67228 6.49355C5.88437 6.2119 5.43497 5.90521 5.19252 6.13088C4.78502 6.5101 4.40788 6.91604 4.0611 7.34362C4.63066 6.4961 5.26649 5.69694 6.03061 4.95589C5.85658 5.24646 6.13537 5.68803 6.48857 5.46321C7.39122 4.88845 8.26182 4.2789 9.19825 3.75546C9.86488 3.38302 10.5764 3.0844 11.261 2.74378C11.3709 2.77899 11.5 2.78535 11.648 2.74802C16.6158 1.49584 21.5622 2.03667 25.4341 5.63798C25.5846 5.77796 25.7698 5.71476 25.8604 5.58835C25.825 5.76778 25.9233 5.9769 26.1645 5.9769C26.5844 5.9769 26.5852 5.33681 26.1645 5.33681C26.0465 5.33681 25.9652 5.38941 25.9135 5.46194C25.9225 5.38983 25.9028 5.31263 25.8365 5.24349C24.5443 3.89247 22.9156 2.76329 21.1257 1.97177C26.3612 3.87338 30.7128 8.52242 31.3397 13.8892C30.9484 12.1738 30.2296 10.5178 29.1709 9.01956C28.9032 8.64076 28.3063 8.96993 28.5342 9.38436C29.941 11.9371 30.6055 14.7295 30.6987 17.6216C30.7958 20.643 29.6122 23.2191 27.9937 25.7116C27.8291 25.9652 28.2097 26.2749 28.42 26.0653C28.5167 26.115 28.6394 26.1158 28.7416 26.0212C31.0797 23.86 32.7901 20.6154 32.56 17.3726C32.5588 17.3547 32.5511 17.3412 32.5481 17.3242Z" fill="white"/>
<path d="M9.82825 28.5847C9.72606 28.8226 9.86246 29.0597 10.1011 29.142C10.2755 29.2018 10.4363 29.2621 10.6202 29.2846C10.9366 29.3236 11.0542 28.896 10.866 28.703C10.7416 28.5758 10.5744 28.4854 10.4256 28.3874C10.2148 28.2479 9.92019 28.3713 9.82825 28.5847Z" fill="white"/>
<path d="M17.7656 12.7377V11.3773C17.7656 10.7148 18.2111 10.5604 18.5237 10.5604C18.8358 10.5604 20.447 10.5604 20.447 10.5604V7.64579L17.7981 7.63477C14.8579 7.63477 14.1896 9.8087 14.1896 11.2V12.7377H12.489V14.7928V16.1392H14.2037C14.2037 19.9942 14.2037 24.6436 14.2037 24.6436H17.6326C17.6326 24.6436 17.6326 19.9475 17.6326 16.1392H20.1776L20.3008 14.8034L20.4902 12.7381L17.7656 12.7377Z" fill="url(#paint0_linear_413_41)"/>
<defs>
<linearGradient id="paint0_linear_413_41" x1="16.4898" y1="-34.7892" x2="16.4898" y2="172.459" gradientUnits="userSpaceOnUse">
<stop stop-color="white"/>
<stop offset="0.1267" stop-color="#FCFCFC"/>
<stop offset="0.3476" stop-color="#E8D594"/>
<stop offset="0.6362" stop-color="#FADA67"/>
<stop offset="0.9782" stop-color="#FFC700"/>
<stop offset="1"/>
</linearGradient>
</defs>
</svg>
