<svg width="431" height="472" viewBox="0 0 431 472" fill="none" xmlns="http://www.w3.org/2000/svg">
<path d="M411.648 391.369H45.2696C35.0206 391.369 25.3846 386.388 19.5366 377.971C-1.16438 348.177 -5.67938 307.634 7.26062 273.394C16.5156 248.906 34.3396 227.81 39.9766 202.246C45.1336 178.861 39.4736 154.644 38.0366 130.74C36.5996 106.836 40.9866 79.8567 60.1636 65.5147C75.8486 53.7847 97.8566 53.7567 116.331 60.2597C134.806 66.7617 150.661 78.8887 166.514 90.3887C182.368 101.89 199.058 113.173 218.148 117.55C240.119 122.587 263.058 117.992 284.953 112.634C306.848 107.277 329.101 101.102 351.559 103.029C374.017 104.956 397.206 116.964 405.332 137.989C414.648 162.094 402.038 189.961 409.106 214.818C413.434 230.04 424.576 242.191 433.053 255.554C453.737 288.162 454.755 333.521 441.087 370.896C436.579 383.225 424.776 391.369 411.648 391.369Z" fill="#CFB9FF"/>
<path d="M266.945 104.075C275.571 102.94 284.347 100.771 291.306 95.5482C304.317 85.7832 307.962 66.5362 301.991 51.4042C296.021 36.2712 282.036 25.2862 266.68 19.9162C251.324 14.5462 234.655 14.1952 218.437 15.4652C205.17 16.5032 191.653 18.6992 180.059 25.2322C170.656 30.5302 161.647 39.8092 158.784 50.4892C156.292 59.7882 161.325 67.1652 167.914 73.2872C184.627 88.8162 206.96 98.9562 229.27 103.037C241.677 105.308 254.433 105.721 266.945 104.075Z" fill="#CFB9FF"/>
<g filter="url(#filter0_d_152_36)">
<path d="M279.997 83.061C296.461 83.061 309.808 69.2501 309.808 52.2136C309.808 35.1771 296.461 21.3662 279.997 21.3662C263.533 21.3662 250.186 35.1771 250.186 52.2136C250.186 69.2501 263.533 83.061 279.997 83.061Z" fill="#7DD3E9"/>
<path d="M289.113 71.0836L281.643 74.6247C280.598 75.12 279.398 75.12 278.354 74.6247L270.884 71.0836C265.16 68.3699 261.49 62.4523 261.49 55.9377V41.9967C261.49 40.5352 262.251 39.1864 263.481 38.4687L278.077 29.9521C279.27 29.2556 280.728 29.2556 281.921 29.9521L296.516 38.4687C297.747 39.1864 298.507 40.5352 298.507 41.9967V55.9377C298.506 62.4533 294.836 68.3699 289.113 71.0836Z" fill="white"/>
<path d="M291.739 48.2901H283.789V40.0645H276.206V48.2901H268.256V56.1374H276.206V64.3641H283.789V56.1374H291.739V48.2901Z" fill="#CC6164"/>
<path d="M306.206 158.039C322.205 158.039 335.175 144.619 335.175 128.064C335.175 111.508 322.205 98.0879 306.206 98.0879C290.207 98.0879 277.238 111.508 277.238 128.064C277.238 144.619 290.207 158.039 306.206 158.039Z" fill="#7DD3E9"/>
<path d="M325.324 115.168C320.76 110.445 313.361 110.445 308.798 115.168L306.208 117.848L303.619 115.168C299.055 110.445 291.656 110.445 287.093 115.168C282.529 119.89 282.529 127.547 287.093 132.269L289.683 134.948L306.209 152.049L322.735 134.948L325.325 132.269C329.887 127.547 329.887 119.89 325.324 115.168Z" fill="#CC6164"/>
<path d="M303.698 147.748L298.085 128.191L295.802 134.809H279.997V132.428H294.181L298.286 120.531L302.879 136.531L305.888 114.075L310.327 132.608L313.515 120.273L317.527 132.428H332.417V134.809H315.881L313.783 128.45L310.243 142.149L306.527 126.636L303.698 147.748Z" fill="white"/>
<path d="M134.653 132.134C145.74 120.662 145.74 102.063 134.653 90.5907C123.567 79.1189 105.592 79.1189 94.5059 90.5907C83.4194 102.063 83.4195 120.662 94.5059 132.134C105.592 143.606 123.567 143.606 134.653 132.134Z" fill="#7DD3E9"/>
<path d="M98.0769 110.205V119.233C98.0769 123.597 101.495 127.133 105.711 127.133C109.928 127.133 113.345 123.595 113.345 119.233V110.205H98.0769Z" fill="white"/>
<path d="M113.346 101.177C113.346 96.8134 109.928 93.2773 105.712 93.2773C101.495 93.2773 98.0779 96.8144 98.0779 101.177V110.205H113.347V101.177H113.346Z" fill="#CC6164"/>
<path d="M113.346 119.234V110.206H106.338L103.243 113.409C100.216 116.541 99.3094 121.043 100.507 125.004C101.871 126.322 103.697 127.135 105.711 127.135C109.928 127.134 113.346 123.596 113.346 119.234Z" fill="#E4E4E0"/>
<path d="M113.346 110.204V102.953L106.338 110.204H113.346Z" fill="#A34262"/>
<path d="M111.881 109.576L105.712 115.96C102.73 119.045 102.73 124.047 105.712 127.132C108.693 130.217 113.527 130.217 116.509 127.132L122.678 120.748L111.881 109.576Z" fill="white"/>
<path d="M128.848 114.365C131.829 111.28 131.829 106.278 128.848 103.193C125.866 100.108 121.033 100.108 118.051 103.193L111.882 109.576L122.679 120.748L128.848 114.365Z" fill="#CC6164"/>
<path d="M193.597 60.0982C204.289 49.0344 204.289 31.0964 193.597 20.0326C182.905 8.96879 165.57 8.96879 154.878 20.0326C144.185 31.0964 144.185 49.0344 154.878 60.0982C165.57 71.1621 182.905 71.1621 193.597 60.0982Z" fill="#7DD3E9"/>
<path d="M185.992 33.9145L179.776 27.4824L163.43 44.3971L169.646 50.8291L185.992 33.9145Z" fill="white"/>
<path d="M169.649 48.9236L184.154 33.915L179.779 29.3883L165.275 44.3969L169.649 48.9236Z" fill="#C7D2D7"/>
<path d="M171.833 53.0945L161.242 42.1357L160.053 43.3664L170.643 54.3251L171.833 53.0945Z" fill="white"/>
<path d="M186.146 30.341L183.229 27.3232L181.426 29.1894L184.342 32.2072L186.146 30.341Z" fill="#C7D2D7"/>
<path d="M185.091 29.2518L184.286 28.4184L191.135 21.3301H192.747L185.091 29.2518Z" fill="#99A3B0"/>
<path d="M166.541 50.0742L164.162 47.6123L158.867 53.0913L161.246 55.5533L166.541 50.0742Z" fill="#C7D2D7"/>
<path d="M163.513 57.905L156.593 50.7441L155.73 51.6374L162.65 58.7983L163.513 57.905Z" fill="white"/>
<path d="M166.534 50.0781L164.155 47.6162L162.385 49.4475L164.765 51.9095L166.534 50.0781Z" fill="#99A3B0"/>
<path d="M181.005 33.9173L172.985 42.2155C172.116 43.1144 170.707 43.1144 169.838 42.2155L168.61 40.9452L165.272 44.3997L168.073 47.2987L169.646 48.9263L172.985 45.4717L184.151 33.9173C183.283 33.0184 181.874 33.0184 181.005 33.9173Z" fill="#CC6164"/>
</g>
<mask id="mask0_152_36" style="mask-type:luminance" maskUnits="userSpaceOnUse" x="6" y="143" width="212" height="251">
<path d="M48.7348 393.953H191.455C214.173 349.402 225.215 295.618 211.151 247.393C197.086 199.168 160.029 157.621 113.197 143.872C91.6556 171.206 77.0361 205.738 75.1693 240.955C53.191 237.555 29.1124 239.747 7.29159 244.098C2.4288 296.977 19.4374 350.336 48.7348 393.953Z" fill="white"/>
</mask>
<g mask="url(#mask0_152_36)">
<path d="M115.907 158.04C106.821 178.337 101.551 198.293 99.6448 217.477C97.7499 236.67 99.2343 255.112 103.954 272.61C108.654 290.113 116.596 306.694 127.805 322.111C139.02 337.514 153.499 351.78 171.417 364.295C185.532 347.414 194.807 327.824 199.087 307.369C203.385 286.925 202.688 265.651 197.324 245.703C191.951 225.758 181.922 207.173 168.03 191.971C154.149 176.75 136.424 164.94 115.907 158.04Z" fill="#9FE0F0"/>
<path d="M189.096 255.7C188.461 255.399 187.731 255.708 187.468 256.382C184.347 264.516 178.567 272.083 173.049 278.009C167.543 283.939 162.081 288.31 159.58 290.241C157.236 279.677 154.566 269.194 151.814 258.736C153.586 257.435 158.22 253.859 163.069 248.498C165.493 245.817 167.971 242.689 170.172 239.179C172.332 235.682 174.206 231.806 175.472 227.63C175.683 226.933 175.324 226.171 174.669 225.93C174.015 225.69 173.314 226.061 173.103 226.758C168.675 241.587 155.384 252.775 151.077 256.092C148.565 246.938 145.924 237.821 143.082 228.771C144.781 227.401 149.197 223.66 153.803 218.07C158.42 212.479 163.08 205.067 165.436 196.381C165.618 195.68 165.225 194.934 164.56 194.718C163.893 194.503 163.207 194.897 163.024 195.598C160.993 203.283 156.812 210.077 152.687 215.333C148.512 220.61 144.329 224.389 142.257 226.15L140.141 219.481L137.926 212.847C136.479 208.413 134.919 204.021 133.361 199.629C134.615 197.975 138.32 192.922 140.784 187.117C141.065 186.465 140.782 185.691 140.155 185.39C139.525 185.09 138.791 185.379 138.513 186.03C136.608 190.473 133.968 194.519 132.35 196.763C129.683 189.441 126.98 182.131 124.099 174.896C123.841 174.238 123.118 173.922 122.484 174.191C121.85 174.459 121.544 175.209 121.801 175.864L124.501 182.751L127.092 189.683L129.66 196.623L132.124 203.604C128.293 202.685 120.408 200.439 115.308 196.718C114.756 196.311 113.983 196.438 113.576 197.002C113.169 197.566 113.285 198.351 113.834 198.758C120.182 203.45 130.32 205.859 133.132 206.461C134.67 210.845 136.094 215.27 137.58 219.672C139.025 224.09 140.388 228.535 141.795 232.965C139.112 232.798 133.593 232.278 127.255 230.76C124.082 230.002 120.722 228.989 117.378 227.654C114.012 226.325 110.689 224.663 107.654 222.572C107.1 222.19 106.33 222.342 105.933 222.909C105.536 223.475 105.662 224.241 106.217 224.623C113.073 229.297 121.027 231.985 127.883 233.535C134.748 235.08 140.453 235.485 142.589 235.584C145.314 244.64 147.918 253.736 150.326 262.888C147.635 262.619 142.117 261.881 135.786 260.157C132.63 259.292 129.291 258.175 126.037 256.731C124.409 256.01 122.803 255.205 121.252 254.309C119.682 253.418 118.158 252.436 116.724 251.35C116.184 250.942 115.403 251.055 114.988 251.602C114.567 252.147 114.662 252.918 115.202 253.325C121.634 258.204 129.44 261.155 136.297 262.935C143.085 264.732 148.841 265.356 151.014 265.533C151.685 268.143 152.386 270.745 153.033 273.361L154.936 281.22C156.247 286.449 157.342 291.732 158.547 296.987C155.456 296.387 148.761 294.936 141.265 292.453C133.807 289.954 125.343 286.5 118.941 281.656C118.402 281.254 117.622 281.373 117.205 281.915C116.787 282.458 116.874 283.225 117.409 283.628C120.994 286.325 125.11 288.602 129.347 290.532C133.584 292.461 137.859 294.061 141.89 295.346C149.925 297.924 156.816 299.281 159.135 299.71L161.559 311.445L163.786 323.22L163.787 323.225C164.065 324.642 164.3 326.067 164.545 327.489C163.152 327.112 161.05 326.512 158.523 325.704C155.978 324.899 153.008 323.888 149.909 322.68C143.697 320.263 137.031 317.067 132 313.1C131.471 312.678 130.687 312.769 130.256 313.304C129.823 313.837 129.903 314.609 130.433 315.031C136.101 319.523 143.615 323.033 150.379 325.583C157.114 328.133 162.909 329.736 165.023 330.271L166.356 338.063L167.559 345.878C167.667 346.578 168.303 347.055 168.981 346.946C169.659 346.838 170.119 346.181 170.011 345.479L168.736 337.228L167.325 329L167.324 328.995L166.381 323.568C168.155 322.291 173.05 318.649 178.34 313.536C183.664 308.423 189.264 301.843 192.537 294.842C192.845 294.186 192.597 293.378 191.984 293.037C191.371 292.698 190.623 292.956 190.317 293.611C187.402 299.792 182.545 305.733 177.698 310.547C172.865 315.363 168.19 319.036 165.856 320.786C164.963 316.137 164.142 311.475 163.149 306.848C162.189 302.214 161.262 297.573 160.194 292.964C162.132 291.535 167.739 287.256 173.801 281.011C176.795 277.898 179.894 274.294 182.701 270.322C185.516 266.349 188.029 262.009 189.772 257.47C190.034 256.798 189.731 256.002 189.096 255.7Z" fill="#A8EFFA"/>
<path d="M22.4404 251.849C16.531 342.835 83.0828 412.724 171.09 407.951C176.999 316.965 110.446 247.076 22.4404 251.849Z" fill="#A8EFFA"/>
<path d="M129.22 306.816C128.525 306.896 128.024 307.545 128.099 308.262C129.94 325.538 122.478 346.37 120.077 352.513L97.612 328.921C99.5439 324.778 107.367 306.622 104.779 289.501C104.671 288.786 104.023 288.297 103.333 288.41C102.641 288.522 102.168 289.192 102.277 289.906C104.576 305.104 98.0031 321.731 95.7113 326.925L75.9877 306.213C77.8788 302.106 85.4847 284.184 82.94 266.574C82.8369 265.859 82.192 265.366 81.5003 265.473C80.8087 265.582 80.3321 266.246 80.4352 266.963C82.6958 282.608 76.3292 299.046 74.0831 304.214L54.6864 283.845C55.1844 281.756 56.5443 275.499 56.6299 269.057C56.6406 268.333 56.0813 267.739 55.3819 267.728C54.6806 267.719 54.1076 268.298 54.0988 269.019C54.0327 273.943 53.1601 278.865 52.5784 281.631L36.3607 264.599C35.8704 264.083 35.0689 264.077 34.5708 264.584C34.0728 265.093 34.0669 265.921 34.5572 266.437L55.165 288.077C51.2594 288.893 42.918 290.28 36.636 288.835C35.9531 288.679 35.277 289.121 35.1253 289.829C34.9735 290.536 35.4035 291.235 36.0864 291.393C43.989 293.21 54.451 290.968 57.2739 290.291L76.6696 310.66C71.6483 312.908 55.6825 319.255 40.5795 316.683C39.8898 316.565 39.2381 317.049 39.1243 317.763C39.0105 318.476 39.4774 319.151 40.1671 319.268C57.1455 322.16 74.5763 314.556 78.5723 312.659L98.2969 333.373C93.2463 335.668 77.0957 342.223 62.4276 339.619C61.7379 339.497 61.0803 339.978 60.9665 340.689C60.8478 341.403 61.3099 342.08 61.9996 342.202C78.5052 345.131 96.1646 337.305 100.197 335.368L122.662 358.96C116.692 361.352 96.4506 368.766 79.7844 366.608C79.0928 366.517 78.4605 367.027 78.371 367.746C78.2854 368.464 78.7776 369.119 79.4712 369.209C98.0654 371.614 120.098 362.885 124.597 360.992L141.233 378.461L141.236 378.464L144.242 381.621C138.694 383.661 121.5 389.443 108.406 387.974C107.712 387.894 107.085 388.416 107.011 389.136C106.936 389.855 107.438 390.502 108.133 390.579C122.962 392.243 142.06 385.278 146.2 383.678L157.171 395.199C157.662 395.715 158.463 395.721 158.961 395.213C159.459 394.705 159.465 393.877 158.974 393.361L147.428 381.236L147.424 381.232L143.615 377.231C145.222 372.972 152.232 353.315 150.844 337.947C150.779 337.227 150.162 336.697 149.466 336.765C148.768 336.833 148.256 337.471 148.323 338.191C149.548 351.761 143.709 369.465 141.655 375.174L122.012 354.546C123.908 349.918 132.668 327.251 130.617 307.977C130.54 307.256 129.914 306.738 129.22 306.816Z" fill="#D9FBFF"/>
</g>
<mask id="mask1_152_36" style="mask-type:luminance" maskUnits="userSpaceOnUse" x="220" y="143" width="212" height="251">
<path d="M389.177 393.953H246.457C223.739 349.402 212.697 295.618 226.761 247.393C240.825 199.168 277.882 157.621 324.715 143.872C346.256 171.206 360.876 205.738 362.743 240.955C384.722 237.555 408.799 239.747 430.621 244.098C435.483 296.977 418.474 350.336 389.177 393.953Z" fill="white"/>
</mask>
<g mask="url(#mask1_152_36)">
<path d="M322.004 158.04C331.09 178.337 336.36 198.293 338.266 217.477C340.161 236.67 338.677 255.112 333.957 272.61C329.256 290.113 321.315 306.694 310.105 322.111C298.89 337.514 284.411 351.78 266.493 364.295C252.378 347.414 243.103 327.824 238.823 307.369C234.525 286.925 235.222 265.651 240.587 245.703C245.96 225.758 255.989 207.173 269.881 191.971C283.763 176.75 301.488 164.94 322.004 158.04Z" fill="#9FE0F0"/>
<path d="M248.815 255.7C249.45 255.399 250.18 255.708 250.443 256.382C253.564 264.516 259.344 272.083 264.862 278.009C270.368 283.939 275.83 288.31 278.331 290.241C280.675 279.677 283.345 269.194 286.098 258.736C284.325 257.435 279.691 253.859 274.842 248.498C272.418 245.817 269.94 242.689 267.739 239.179C265.579 235.682 263.705 231.806 262.439 227.63C262.228 226.933 262.587 226.171 263.242 225.93C263.896 225.69 264.597 226.061 264.808 226.758C269.236 241.587 282.527 252.775 286.834 256.092C289.346 246.938 291.988 237.821 294.829 228.771C293.131 227.401 288.714 223.66 284.108 218.07C279.491 212.479 274.831 205.067 272.475 196.381C272.293 195.68 272.686 194.934 273.352 194.718C274.018 194.503 274.704 194.897 274.887 195.598C276.918 203.283 281.099 210.077 285.224 215.333C289.399 220.61 293.582 224.389 295.655 226.15L297.771 219.481L299.986 212.847C301.433 208.413 302.994 204.021 304.551 199.629C303.297 197.975 299.592 192.922 297.128 187.117C296.848 186.465 297.131 185.691 297.758 185.39C298.387 185.09 299.122 185.379 299.4 186.03C301.305 190.473 303.945 194.519 305.563 196.763C308.23 189.441 310.933 182.131 313.814 174.896C314.072 174.238 314.795 173.922 315.429 174.191C316.063 174.459 316.369 175.209 316.112 175.864L313.413 182.751L310.821 189.683L308.253 196.623L305.789 203.604C309.62 202.685 317.505 200.439 322.605 196.718C323.157 196.311 323.93 196.438 324.338 197.002C324.744 197.566 324.628 198.351 324.079 198.758C317.732 203.45 307.594 205.859 304.781 206.461C303.243 210.845 301.819 215.27 300.333 219.672C298.888 224.09 297.526 228.535 296.118 232.965C298.801 232.798 304.32 232.278 310.658 230.76C313.831 230.002 317.191 228.989 320.535 227.654C323.901 226.325 327.224 224.663 330.259 222.572C330.813 222.19 331.585 222.342 331.98 222.909C332.377 223.475 332.251 224.241 331.696 224.623C324.84 229.297 316.886 231.985 310.03 233.535C303.166 235.08 297.46 235.485 295.324 235.584C292.599 244.64 289.995 253.736 287.587 262.888C290.279 262.619 295.796 261.881 302.127 260.157C305.283 259.292 308.622 258.175 311.877 256.731C313.504 256.01 315.11 255.205 316.662 254.309C318.232 253.418 319.755 252.436 321.189 251.35C321.729 250.942 322.51 251.055 322.925 251.602C323.346 252.147 323.251 252.918 322.711 253.325C316.279 258.204 308.473 261.155 301.616 262.935C294.828 264.732 289.072 265.356 286.899 265.533C286.228 268.143 285.528 270.745 284.88 273.361L282.977 281.22C281.666 286.449 280.571 291.732 279.366 296.987C282.457 296.387 289.152 294.936 296.648 292.453C304.106 289.954 312.57 286.5 318.972 281.656C319.511 281.254 320.291 281.373 320.708 281.915C321.126 282.458 321.039 283.225 320.504 283.628C316.919 286.325 312.803 288.602 308.566 290.532C304.329 292.461 300.054 294.061 296.023 295.346C287.988 297.924 281.097 299.281 278.778 299.71L276.355 311.445L274.127 323.22L274.126 323.225C273.848 324.642 273.613 326.067 273.368 327.489C274.761 327.112 276.863 326.512 279.39 325.704C281.935 324.899 284.905 323.888 288.004 322.68C294.216 320.263 300.882 317.067 305.914 313.1C306.442 312.678 307.226 312.769 307.657 313.304C308.09 313.837 308.01 314.609 307.48 315.031C301.812 319.523 294.298 323.033 287.534 325.583C280.799 328.133 275.004 329.736 272.891 330.271L271.557 338.063L270.354 345.878C270.246 346.578 269.61 347.055 268.932 346.946C268.254 346.838 267.794 346.181 267.902 345.479L269.178 337.228L270.588 329L270.589 328.995L271.532 323.568C269.758 322.291 264.863 318.649 259.573 313.536C254.249 308.423 248.65 301.843 245.376 294.842C245.068 294.186 245.316 293.378 245.929 293.037C246.543 292.698 247.29 292.956 247.596 293.611C250.511 299.792 255.368 305.733 260.216 310.547C265.048 315.363 269.723 319.036 272.057 320.786C272.95 316.137 273.771 311.475 274.764 306.848C275.724 302.214 276.65 297.573 277.719 292.964C275.781 291.535 270.174 287.256 264.112 281.011C261.118 277.898 258.019 274.294 255.212 270.322C252.397 266.349 249.885 262.009 248.141 257.47C247.878 256.798 248.181 256.002 248.815 255.7Z" fill="#A8EFFA"/>
<path d="M415.471 251.849C421.381 342.835 354.829 412.724 266.822 407.951C260.913 316.965 327.464 247.076 415.471 251.849Z" fill="#A8EFFA"/>
<path d="M308.692 306.816C309.386 306.896 309.887 307.545 309.813 308.262C307.972 325.538 315.434 346.37 317.835 352.513L340.3 328.922C338.368 324.778 330.545 306.622 333.132 289.501C333.24 288.786 333.888 288.297 334.579 288.41C335.27 288.522 335.743 289.192 335.634 289.906C333.336 305.104 339.909 321.731 342.2 326.925L361.924 306.213C360.033 302.106 352.427 284.184 354.972 266.574C355.075 265.859 355.72 265.366 356.411 265.473C357.103 265.582 357.58 266.246 357.476 266.963C355.216 282.608 361.582 299.046 363.829 304.214L383.225 283.845C382.727 281.756 381.367 275.499 381.282 269.057C381.271 268.333 381.83 267.739 382.53 267.728C383.231 267.719 383.804 268.298 383.813 269.019C383.879 273.943 384.751 278.865 385.333 281.631L401.552 264.599C402.042 264.083 402.844 264.077 403.342 264.584C403.84 265.093 403.846 265.921 403.355 266.437L382.748 288.077C386.653 288.893 394.995 290.28 401.277 288.835C401.96 288.679 402.636 289.121 402.787 289.829C402.939 290.536 402.509 291.235 401.826 291.393C393.924 293.21 383.462 290.968 380.64 290.291L361.244 310.66C366.265 312.908 382.231 319.255 397.334 316.683C398.024 316.565 398.675 317.049 398.789 317.763C398.903 318.476 398.436 319.151 397.747 319.268C380.768 322.16 363.337 314.556 359.341 312.659L339.617 333.373C344.667 335.668 360.818 342.223 375.486 339.619C376.176 339.497 376.833 339.978 376.947 340.689C377.066 341.403 376.604 342.08 375.914 342.202C359.408 345.131 341.749 337.305 337.717 335.368L315.251 358.96C321.222 361.352 341.463 368.766 358.129 366.608C358.821 366.517 359.453 367.027 359.543 367.746C359.628 368.464 359.136 369.119 358.443 369.209C339.849 371.614 317.816 362.885 313.316 360.992L296.678 378.462L296.676 378.465L293.67 381.622C299.217 383.662 316.412 389.444 329.506 387.975C330.2 387.896 330.827 388.417 330.901 389.137C330.976 389.856 330.474 390.503 329.778 390.58C314.95 392.244 295.852 385.279 291.712 383.679L280.741 395.2C280.25 395.716 279.449 395.722 278.951 395.214C278.453 394.706 278.447 393.878 278.937 393.362L290.484 381.237L290.488 381.233L294.297 377.232C292.69 372.973 285.679 353.316 287.068 337.948C287.133 337.228 287.75 336.698 288.446 336.766C289.143 336.834 289.655 337.472 289.589 338.192C288.363 351.762 294.203 369.466 296.256 375.175L315.9 354.547C314.003 349.919 305.244 327.252 307.295 307.978C307.371 307.256 307.997 306.738 308.692 306.816Z" fill="#D9FBFF"/>
</g>
<path d="M161.866 268.556L129.547 261.599L123.398 320.716C123.085 323.724 122.977 326.752 123.074 329.777L125.179 395.141H156.037V325.526L161.866 268.556Z" fill="#BD6C67"/>
<path d="M129.547 261.598L161.866 268.556L160.581 281.114L129.018 266.688L129.547 261.598Z" fill="#A64F5A"/>
<path d="M273.712 268.556L306.031 261.599L312.18 320.716C312.493 323.724 312.601 326.752 312.504 329.777L310.399 395.141H279.541V325.526L273.712 268.556Z" fill="#BD6C67"/>
<path d="M306.031 261.598L273.712 268.556L274.997 281.114L306.56 266.688L306.031 261.598Z" fill="#A64F5A"/>
<path d="M273.712 301.676C281.182 286.863 278.158 272.235 277.103 267.865L313.847 259.916L302.301 229.442C297.721 217.355 288.096 208.066 276.126 204.18L244.369 193.868C240.655 201.877 233.403 212.074 217.789 212.074C202.176 212.074 194.925 201.877 191.209 193.868L159.452 204.18C147.482 208.067 137.858 217.355 133.278 229.442L121.732 259.916L158.476 267.865C157.421 272.235 154.397 286.863 161.866 301.676C161.866 301.676 165.466 329.603 165.466 344.022C165.466 358.44 153.769 373.295 153.769 395.14H217.789H281.81C281.81 373.295 270.113 358.44 270.113 344.022C270.113 329.603 273.712 301.676 273.712 301.676Z" fill="#6C6FC3"/>
<path d="M158.476 267.865L161.326 256.942L125.689 249.47L121.732 259.915L158.476 267.865Z" fill="white"/>
<path d="M246.416 194.533L244.368 193.868C240.654 201.877 233.402 212.074 217.788 212.074C202.175 212.074 194.923 201.877 191.208 193.868L189.16 194.533C185.86 204.672 187.933 216.379 192.536 225.961C196.106 233.393 201.409 239.79 207.539 245.184C209.867 247.232 213.443 245.834 213.941 242.714C214.863 236.944 216.19 231.262 217.787 225.638C219.384 231.263 220.712 236.944 221.633 242.714C222.131 245.834 225.708 247.233 228.035 245.184C234.165 239.791 239.469 233.393 243.039 225.961C247.643 216.379 249.717 204.673 246.416 194.533Z" fill="#56438C"/>
<path d="M246.416 194.533L244.368 193.868C240.654 201.877 233.402 212.074 217.788 212.074C202.175 212.074 194.924 201.877 191.209 193.868L189.161 194.533C187.614 201.883 188.074 209.682 190.518 216.769C192.52 222.578 198.441 230.284 204.07 235.841C206.691 238.429 211.005 237.453 212.313 233.957L217.789 219.33L223.264 233.957C224.573 237.452 228.886 238.429 231.508 235.841C237.137 230.284 243.058 222.578 245.06 216.769C247.503 209.682 247.963 201.883 246.416 194.533Z" fill="white"/>
<path d="M217.79 395.384H153.533V395.141C153.533 383.082 157.226 372.767 159.923 365.236L160.365 365.406C156.911 375.053 154.047 383.938 154.005 394.897H217.79V395.384Z" fill="#422C4F"/>
<path d="M194.586 312.137C194.468 312.137 194.366 312.046 194.352 311.921C194.337 311.788 194.43 311.667 194.559 311.652C195.542 311.534 196.527 311.386 197.485 311.213C205.979 309.671 212.115 306.239 214.763 301.555C214.828 301.437 214.973 301.398 215.085 301.467C215.198 301.534 215.235 301.684 215.169 301.8C212.45 306.613 206.2 310.126 197.566 311.692C196.6 311.868 195.605 312.017 194.614 312.135C194.604 312.136 194.594 312.137 194.586 312.137Z" fill="#422C4F"/>
<path d="M163.32 249.714C163.252 249.714 163.185 249.684 163.138 249.625C163.092 249.566 158.461 243.777 152.431 241.733C152.308 241.691 152.24 241.552 152.28 241.426C152.321 241.298 152.453 241.228 152.577 241.27C158.74 243.359 163.455 249.258 163.502 249.317C163.584 249.421 163.57 249.574 163.469 249.659C163.425 249.697 163.372 249.714 163.32 249.714Z" fill="#422C4F"/>
<path d="M162.548 252.642C162.439 252.642 162.342 252.563 162.318 252.449C162.08 251.279 158.379 247.934 152.614 247.934C152.577 247.934 152.512 247.94 152.503 247.935C152.374 247.935 152.269 247.827 152.268 247.694C152.267 247.559 152.371 247.449 152.501 247.448C152.539 247.447 152.577 247.447 152.614 247.447C158.57 247.447 162.488 250.915 162.779 252.348C162.805 252.48 162.724 252.609 162.597 252.637C162.581 252.64 162.564 252.642 162.548 252.642Z" fill="#422C4F"/>
<path d="M168.554 308.242C168.517 308.242 168.479 308.234 168.444 308.214C165.241 306.468 162.958 304.307 161.658 301.792C154.821 288.234 156.586 274.68 158.247 267.807L164.838 242.772C164.873 242.644 165.001 242.568 165.127 242.602C165.253 242.637 165.326 242.771 165.292 242.901L158.702 267.929C157.059 274.731 155.311 288.151 162.073 301.564C163.327 303.989 165.544 306.083 168.663 307.784C168.777 307.845 168.822 307.993 168.761 308.112C168.72 308.196 168.638 308.242 168.554 308.242Z" fill="#422C4F"/>
<path d="M277.103 267.865L274.253 256.942L309.889 249.47L313.847 259.915L277.103 267.865Z" fill="white"/>
<path d="M217.789 395.384H282.045V395.141C282.045 383.082 278.353 372.767 275.655 365.236L275.214 365.406C278.668 375.053 281.531 383.938 281.573 394.897H217.789V395.384Z" fill="#422C4F"/>
<path d="M240.993 312.137C241.111 312.137 241.212 312.046 241.226 311.921C241.242 311.788 241.149 311.667 241.019 311.652C240.036 311.534 239.052 311.386 238.093 311.213C229.599 309.671 223.464 306.239 220.816 301.555C220.751 301.437 220.606 301.398 220.494 301.467C220.381 301.534 220.343 301.684 220.409 301.8C223.128 306.613 229.379 310.126 238.012 311.692C238.979 311.868 239.973 312.017 240.965 312.135C240.975 312.136 240.985 312.137 240.993 312.137Z" fill="#422C4F"/>
<path d="M272.259 249.714C272.327 249.714 272.394 249.684 272.441 249.625C272.487 249.566 277.118 243.777 283.148 241.733C283.271 241.691 283.339 241.552 283.299 241.426C283.258 241.298 283.125 241.228 283.002 241.27C276.839 243.359 272.124 249.258 272.077 249.317C271.995 249.421 272.009 249.574 272.11 249.659C272.154 249.697 272.207 249.714 272.259 249.714Z" fill="#422C4F"/>
<path d="M273.031 252.642C273.14 252.642 273.237 252.563 273.26 252.449C273.498 251.279 277.199 247.934 282.964 247.934C283.002 247.934 283.067 247.94 283.075 247.935C283.204 247.935 283.31 247.827 283.311 247.694C283.312 247.559 283.207 247.449 283.077 247.448C283.039 247.447 283.002 247.447 282.964 247.447C277.008 247.447 273.091 250.915 272.8 252.348C272.774 252.48 272.854 252.609 272.982 252.637C272.998 252.64 273.015 252.642 273.031 252.642Z" fill="#422C4F"/>
<path d="M267.024 308.242C267.062 308.242 267.099 308.234 267.134 308.214C270.337 306.468 272.62 304.307 273.92 301.792C280.757 288.234 278.992 274.68 277.331 267.807L270.739 242.772C270.704 242.644 270.576 242.568 270.45 242.602C270.325 242.637 270.251 242.771 270.285 242.901L276.876 267.929C278.518 274.731 280.268 288.151 273.504 301.564C272.25 303.989 270.033 306.083 266.914 307.784C266.799 307.845 266.755 307.993 266.816 308.112C266.858 308.196 266.94 308.242 267.024 308.242Z" fill="#422C4F"/>
<path d="M244.369 193.867L233.834 190.446V174.718H217.789H201.744V190.446L191.209 193.867C194.923 201.876 202.175 212.073 217.789 212.073C233.403 212.073 240.654 201.876 244.369 193.867Z" fill="#BD6C67"/>
<path d="M217.789 174.717H201.744V178.109C205.439 185.749 213.936 188.37 217.789 188.37C221.641 188.37 230.139 185.749 233.834 178.109V174.717H217.789Z" fill="#422C4F"/>
<path d="M200.571 177.152C209.806 167.596 209.806 152.103 200.571 142.547C191.337 132.992 176.364 132.992 167.129 142.547C157.895 152.103 157.895 167.596 167.129 177.152C176.364 186.708 191.337 186.708 200.571 177.152Z" fill="#422C4F"/>
<path d="M273.511 169.356C278.586 156.904 272.945 142.553 260.912 137.302C248.878 132.05 235.009 137.887 229.934 150.339C224.859 162.791 230.5 177.142 242.533 182.394C254.567 187.645 268.436 181.808 273.511 169.356Z" fill="#422C4F"/>
<path d="M193.398 155.101C194.125 148.977 189.916 143.403 183.997 142.652C178.079 141.9 172.693 146.255 171.966 152.379C171.24 158.503 175.449 164.077 181.367 164.829C187.286 165.58 192.672 161.225 193.398 155.101Z" fill="#A64F5A"/>
<path d="M188.383 153.737C188.383 156.986 185.838 159.619 182.699 159.619C179.559 159.619 177.014 156.986 177.014 153.737C177.014 150.488 179.559 147.854 182.699 147.854C185.838 147.855 188.383 150.489 188.383 153.737Z" fill="#8C404C"/>
<path d="M255.339 164.618C261.144 163.208 264.745 157.195 263.382 151.188C262.018 145.181 256.208 141.455 250.403 142.866C244.598 144.276 240.997 150.289 242.36 156.296C243.723 162.303 249.534 166.029 255.339 164.618Z" fill="#A64F5A"/>
<path d="M247.195 153.735C247.195 156.984 249.74 159.617 252.879 159.617C256.018 159.617 258.563 156.984 258.563 153.735C258.563 150.486 256.018 147.853 252.879 147.853C249.74 147.854 247.195 150.487 247.195 153.735Z" fill="#8C404C"/>
<path d="M217.789 89.8447C198.028 89.8447 182.009 106.421 182.009 126.869V128.729C182.009 131.566 182.324 134.394 182.949 137.157L188.146 160.16C189.68 166.953 193.73 172.852 199.423 176.588L203.367 179.175C207.679 182.005 212.682 183.508 217.789 183.508C222.897 183.508 227.899 182.006 232.212 179.175L236.156 176.588C241.849 172.852 245.898 166.954 247.433 160.16L252.63 137.157C253.254 134.394 253.569 131.566 253.569 128.729V126.869C253.568 106.421 237.55 89.8447 217.789 89.8447Z" fill="#BD6C67"/>
<path d="M200.788 123.38C196.707 123.568 193.178 125.756 191.016 128.981L211.002 128.06C208.572 125.047 204.869 123.191 200.788 123.38Z" fill="#422C4F"/>
<path d="M234.79 123.38C238.872 123.568 242.4 125.756 244.562 128.981L224.575 128.06C227.006 125.047 230.709 123.191 234.79 123.38Z" fill="#422C4F"/>
<path d="M223.831 155.071H211.855C211.819 155.071 211.783 155.071 211.749 155.071C212.708 155.946 213.683 156.708 214.795 157.362C215.907 158.015 217.188 158.433 218.46 158.3C220.424 158.093 222.368 156.445 223.831 155.071Z" fill="#A64F5A"/>
<path d="M223.846 170.772H213.601C215.039 171.99 216.8 172.764 218.658 172.812C220.514 172.861 222.35 171.914 223.846 170.772Z" fill="#A64F5A"/>
<path d="M202.389 134.973C201.467 134.973 200.637 135.367 200.039 135.999C198.776 135.471 197.537 134.878 196.336 134.21C196.909 135.597 197.934 136.817 199.185 137.625C199.131 137.868 199.098 138.119 199.098 138.379C199.098 140.26 200.572 141.784 202.39 141.784C204.208 141.784 205.681 140.26 205.681 138.379C205.681 136.497 204.207 134.973 202.389 134.973Z" fill="#422C4F"/>
<path d="M233.189 134.973C234.111 134.973 234.941 135.367 235.539 135.999C236.802 135.471 238.041 134.878 239.242 134.21C238.669 135.597 237.644 136.817 236.393 137.625C236.446 137.868 236.479 138.119 236.479 138.379C236.479 140.26 235.006 141.784 233.188 141.784C231.37 141.784 229.896 140.26 229.896 138.379C229.897 136.497 231.371 134.973 233.189 134.973Z" fill="#422C4F"/>
<path d="M229.897 159.618C222.189 163.269 213.452 163.463 205.643 160.158C208.504 164.568 212.988 167.823 217.55 167.803C222.111 167.783 227.06 164.053 229.897 159.618Z" fill="white"/>
<path d="M252.081 95.0811C244.47 84.3229 230.648 79.3719 217.77 79.8298C204.892 79.3729 191.071 84.3239 183.459 95.0811C177.103 104.065 175.671 115.985 177.248 126.999C178.825 138.014 183.71 149.143 187.967 159.368L183.297 131.998C187.822 126.738 186.644 118.358 190.123 112.305C192.68 107.856 197.512 105.22 202.426 104.244C207.338 103.267 212.789 103.518 217.77 103.992C222.751 103.518 228.202 103.267 233.114 104.244C238.027 105.22 242.861 107.856 245.418 112.305C248.896 118.358 247.719 126.738 252.243 131.998L247.574 159.368C251.831 149.142 256.715 138.013 258.292 126.999C259.869 115.985 258.437 104.064 252.081 95.0811Z" fill="#422C4F"/>
<path d="M237.959 208.343C237.902 208.343 237.844 208.319 237.802 208.271C237.724 208.181 237.732 208.043 237.818 207.962C239.42 206.47 240.846 204.814 242.059 203.037C242.126 202.938 242.258 202.915 242.353 202.985C242.448 203.054 242.471 203.19 242.403 203.289C241.174 205.092 239.726 206.773 238.1 208.286C238.059 208.324 238.009 208.343 237.959 208.343Z" fill="#422C4F"/>
<path d="M232.665 212.293C232.591 212.293 232.521 212.253 232.482 212.183C232.425 212.078 232.459 211.944 232.56 211.885C233.482 211.341 234.381 210.745 235.234 210.112C235.326 210.041 235.46 210.063 235.529 210.162C235.597 210.26 235.575 210.396 235.48 210.467C234.616 211.109 233.703 211.713 232.77 212.265C232.736 212.284 232.701 212.293 232.665 212.293Z" fill="#422C4F"/>
<path d="M217.804 216.437C217.519 216.437 217.235 216.433 216.951 216.423C211.964 216.262 206.974 214.724 202.521 211.974C202.422 211.911 202.389 211.778 202.448 211.675C202.507 211.57 202.637 211.536 202.737 211.599C207.129 214.312 212.049 215.829 216.965 215.986C220.85 216.119 224.891 215.365 228.645 213.83C228.754 213.785 228.875 213.84 228.919 213.952C228.962 214.064 228.909 214.191 228.8 214.236C225.267 215.681 221.484 216.437 217.804 216.437Z" fill="#422C4F"/>
<path d="M198.014 208.516C197.965 208.516 197.915 208.498 197.875 208.46C195.688 206.458 193.825 204.177 192.337 201.68C192.276 201.577 192.307 201.443 192.406 201.379C192.506 201.316 192.635 201.348 192.697 201.45C194.163 203.911 196 206.159 198.155 208.133C198.242 208.213 198.251 208.351 198.173 208.441C198.13 208.491 198.072 208.516 198.014 208.516Z" fill="#422C4F"/>
<path d="M234.464 228.6C234.411 228.6 234.358 228.58 234.318 228.54C234.234 228.456 234.23 228.318 234.311 228.231C238.888 223.295 242.226 217.196 243.965 210.597C243.995 210.481 244.114 210.414 244.224 210.444C244.337 210.475 244.403 210.596 244.373 210.712C242.615 217.381 239.242 223.544 234.617 228.533C234.575 228.578 234.519 228.6 234.464 228.6Z" fill="#422C4F"/>
<path d="M194.957 220.527C194.881 220.527 194.808 220.484 194.77 220.41C193.795 218.499 193.006 216.485 192.424 214.426C192.391 214.31 192.455 214.189 192.567 214.155C192.679 214.12 192.796 214.187 192.829 214.303C193.403 216.334 194.182 218.321 195.143 220.208C195.198 220.314 195.158 220.445 195.054 220.502C195.023 220.519 194.989 220.527 194.957 220.527Z" fill="#422C4F"/>
<path d="M200.484 325.117C200.373 325.117 200.28 325.028 200.273 324.912C200.266 324.791 200.355 324.688 200.472 324.681C215.044 323.809 230.234 319.83 244.623 315.491C224.528 318.142 204.134 318.543 183.957 316.681C183.841 316.67 183.756 316.564 183.766 316.444C183.775 316.323 183.877 316.227 183.995 316.246C205.046 318.19 226.34 317.666 247.278 314.686C247.396 314.677 247.491 314.746 247.514 314.857C247.537 314.969 247.473 315.08 247.368 315.112C232.185 319.76 215.999 324.19 200.496 325.118C200.491 325.117 200.488 325.117 200.484 325.117Z" fill="#422C4F"/>
<path d="M231.989 340.193C216.229 340.193 200.542 338.229 185.144 334.315C185.031 334.286 184.962 334.167 184.99 334.05C185.017 333.933 185.132 333.862 185.245 333.89C206.835 339.377 229.001 341.026 251.126 338.788C251.251 338.772 251.346 338.865 251.357 338.985C251.368 339.106 251.283 339.212 251.168 339.223C244.773 339.87 238.374 340.193 231.989 340.193Z" fill="#422C4F"/>
<path d="M231.975 347.869C218.829 347.869 205.693 345.49 193.331 340.816C193.222 340.775 193.166 340.649 193.205 340.536C193.245 340.423 193.365 340.364 193.476 340.407C210.402 346.805 228.793 348.887 246.656 346.429C246.778 346.417 246.878 346.498 246.893 346.617C246.908 346.737 246.827 346.847 246.712 346.863C241.826 347.535 236.898 347.869 231.975 347.869Z" fill="#422C4F"/>
<path d="M243.956 365.318C225.177 365.318 206.302 358.941 191.257 347.35C191.164 347.279 191.144 347.141 191.214 347.044C191.285 346.948 191.416 346.927 191.51 346.999C208.34 359.966 229.983 366.375 250.902 364.584C251.019 364.567 251.12 364.663 251.13 364.784C251.14 364.905 251.054 365.009 250.937 365.02C248.617 365.221 246.288 365.318 243.956 365.318Z" fill="#422C4F"/>
<path d="M335.134 211.668C332.272 212.707 328.969 211.819 326.591 209.87C324.214 207.92 322.682 205.04 321.797 202.038C320.912 199.037 320.621 195.888 320.333 192.764C319.995 189.079 319.728 185.073 321.68 181.972C323.408 179.225 326.533 177.793 329.587 176.921C332.837 175.993 336.373 175.546 339.534 176.76C343.627 178.333 346.388 182.482 347.546 186.837C348.704 191.193 348.506 195.795 348.3 200.309C348.156 203.458 348.012 206.607 347.869 209.756L349.21 215.897L336.437 217.827L335.134 211.668Z" fill="#EBA58E"/>
<path d="M333.798 218.225L334.652 213.749L349.948 211.564L350.991 215.628L333.798 218.225Z" fill="#7DD3E9"/>
<path d="M347.202 179.854C347.131 175.927 343.785 172.365 339.992 172.181C337.244 172.048 334.559 173.46 331.824 173.151C328.581 172.783 325.949 170.081 322.724 169.577C319.276 169.039 315.686 171.405 314.472 174.786C313.258 178.169 314.367 182.231 316.951 184.654C319.534 187.077 323.629 187.846 326.981 186.851C326.525 189.615 327.728 192.241 329.822 194.021C329.12 196.869 329.887 199.774 331.791 201.953C331.791 199.259 332.664 197.244 333.682 196.278C334.7 195.313 336.366 195.002 337.484 195.839C338.297 196.447 338.678 197.51 338.795 198.54C338.981 200.171 338.599 201.867 337.735 203.245C336.87 204.624 335.53 205.675 334.014 206.164C337.452 209.453 343.263 210.642 347.867 209.757C350.864 209.18 352.399 205.116 353.324 202.11C354.248 199.105 354.611 195.949 354.947 192.814C355.153 190.886 355.352 188.94 355.144 187.013C354.936 185.086 354.286 183.153 352.997 181.745C351.71 180.336 349.014 179.355 347.202 179.854Z" fill="#6A3649"/>
<path d="M333.771 204.197C333.683 204.197 333.596 204.182 333.514 204.152C333.263 204.057 332.948 203.782 332.885 203.002C332.737 201.177 333.256 199.283 334.307 197.808C334.751 197.184 335.202 196.872 335.686 196.852C336.223 196.836 336.724 197.178 337.018 197.735C337.267 198.208 337.337 198.755 337.4 199.237C337.415 199.357 337.334 199.466 337.218 199.482C337.094 199.494 336.995 199.414 336.981 199.294C336.921 198.829 336.859 198.347 336.647 197.944C336.473 197.614 336.125 197.288 335.731 197.288C335.722 197.288 335.713 197.288 335.703 197.289C335.355 197.302 335.009 197.556 334.647 198.067C333.655 199.458 333.168 201.244 333.306 202.965C333.33 203.267 333.412 203.648 333.658 203.741C333.786 203.787 333.965 203.742 334.098 203.625C334.22 203.517 334.32 203.353 334.413 203.111C334.665 202.451 334.697 201.711 334.504 201.03C334.472 200.914 334.536 200.793 334.648 200.759C334.759 200.724 334.876 200.791 334.91 200.907C335.129 201.681 335.092 202.521 334.806 203.27C334.731 203.466 334.606 203.75 334.372 203.956C334.193 204.114 333.979 204.197 333.771 204.197Z" fill="#422C4F"/>
<path d="M333.744 199.431C333.681 199.431 333.621 199.404 333.58 199.349C333.506 199.256 333.52 199.118 333.611 199.042C334.222 198.534 335.131 198.442 335.826 198.823C335.929 198.879 335.968 199.012 335.914 199.118C335.859 199.225 335.73 199.265 335.628 199.209C335.081 198.91 334.359 198.979 333.877 199.383C333.837 199.415 333.791 199.431 333.744 199.431Z" fill="#422C4F"/>
<path d="M264.185 238.71C264.185 230.827 259.853 224.298 254.168 223.016V222.771H252.133C245.476 222.771 240.081 229.907 240.081 238.71C240.081 247.512 245.476 254.648 252.133 254.648H254.168V254.403C259.853 253.121 264.185 246.593 264.185 238.71Z" fill="#99A3B0"/>
<path d="M254.168 254.648C260.824 254.648 266.22 247.512 266.22 238.71C266.22 229.907 260.824 222.771 254.168 222.771C247.512 222.771 242.116 229.907 242.116 238.71C242.116 247.512 247.512 254.648 254.168 254.648Z" fill="#C7D2D7"/>
<path d="M270.208 238.709C270.208 233.969 267.603 230.043 264.184 229.272V229.125H257.219C253.217 229.125 249.972 233.416 249.972 238.709C249.972 244.002 253.217 248.294 257.219 248.294H264.184V248.146C267.603 247.376 270.208 243.45 270.208 238.709Z" fill="#99A3B0"/>
<path d="M264.184 248.294C268.187 248.294 271.432 244.003 271.432 238.709C271.432 233.416 268.187 229.125 264.184 229.125C260.181 229.125 256.937 233.416 256.937 238.709C256.937 244.003 260.181 248.294 264.184 248.294Z" fill="#C7D2D7"/>
<path d="M261.145 242.496C266.302 257.654 266.608 274.17 272.621 289.048C276.971 299.811 285.191 310.27 296.781 312.686C307.546 314.93 318.687 309.414 321.985 298.257C323.979 291.512 323.486 284.197 323.548 277.235C323.613 269.76 323.783 262.283 324.218 254.82C325.274 236.678 327.854 218.376 334.817 201.564C335.241 200.542 333.786 199.65 333.359 200.683C323.306 224.954 322.059 251.91 321.853 277.967C321.799 284.744 322.29 291.951 320.158 298.466C317.692 306.007 311.109 310.695 303.554 311.356C290.198 312.525 279.824 301.422 274.742 289.747C268.169 274.648 268.059 257.563 262.775 242.03C262.415 240.977 260.784 241.431 261.145 242.496Z" fill="#454F6B"/>
<path d="M334.246 202.708C335.121 202.708 335.83 201.974 335.83 201.069C335.83 200.164 335.121 199.431 334.246 199.431C333.372 199.431 332.663 200.164 332.663 201.069C332.663 201.974 333.372 202.708 334.246 202.708Z" fill="#797C99"/>
<path d="M364.722 332.777L363.322 460.766H386.039L395.347 316.497L364.722 332.777Z" fill="#454F6B"/>
<path d="M368.59 330.721L367.02 355.964L364.721 356.29V397.476L373.074 360.099C379.815 359.14 386.43 357.309 392.944 355.133L395.348 316.496L368.59 330.721Z" fill="#422C4F"/>
<path d="M338.849 332.777L337.449 460.766H360.166L369.475 316.497L338.849 332.777Z" fill="#454F6B"/>
<path d="M338.85 332.777V354.365C346.524 359.055 355.704 360.946 364.722 360.794C365.39 360.782 366.057 360.758 366.723 360.725L368.589 330.722L369.474 316.498L338.85 332.777Z" fill="#422C4F"/>
<path d="M360.555 454.744C360.551 454.744 360.545 454.744 360.541 454.743C360.425 454.735 360.336 454.632 360.345 454.512L366.006 368.881C366.013 368.761 366.119 368.651 366.229 368.678C366.346 368.686 366.434 368.789 366.426 368.909L360.764 454.539C360.759 454.655 360.666 454.744 360.555 454.744Z" fill="#422C4F"/>
<path d="M279.294 247.464L275.634 246.081L270.722 235.349C270.205 234.219 269.43 233.236 268.464 232.484L264.438 229.348C263.993 229.001 263.372 229.031 262.96 229.419C262.494 229.857 262.452 230.6 262.863 231.092L267.119 236.178L259.312 233.061C258.686 232.811 257.981 233.129 257.732 233.774C257.505 234.36 257.729 235.029 258.257 235.345L265.501 239.674L258.65 239.002C257.917 238.93 257.258 239.469 257.157 240.225C257.06 240.947 257.505 241.629 258.19 241.804L265.22 243.607L259.488 244.124C258.82 244.184 258.343 244.817 258.448 245.501C258.538 246.087 259.028 246.514 259.601 246.507L264.515 246.447C265.289 252.273 270.849 253.583 270.849 253.583L276.479 256.569L279.294 247.464Z" fill="#EBA58E"/>
<path d="M279.294 247.463L276.663 246.469C272.626 248.174 271.824 251.905 271.381 253.862L276.479 256.565L279.294 247.463Z" fill="#E78882"/>
<path d="M369.604 223.775C366.714 217.674 360.342 214.216 353.844 215.198L330.048 218.792C324.224 219.672 319.166 223.407 316.468 228.821L302.094 257.66L277.745 245.426C270.849 251.544 272.397 259.262 272.397 259.262L298.71 274.207C304.855 277.697 312.572 275.375 315.95 269.019L323.768 254.31C340.446 274.773 338.546 337.469 336.645 349.266C349.041 355.032 365.109 354.585 377.299 352.946C378.325 343.634 379.351 334.322 380.376 325.01C381.756 333.911 382.578 343.098 382.431 352.157C390.136 350.825 395.335 349.266 395.335 349.266C402.727 284.526 378.585 242.736 369.604 223.775Z" fill="white"/>
<path d="M323.936 248.825L314.304 266.207C311.214 271.783 304.341 273.713 298.95 270.52L272.455 254.825C272.03 257.419 272.398 259.262 272.398 259.262L298.711 274.206C304.856 277.697 312.573 275.374 315.951 269.018L323.769 254.31L329.125 244.232C326.936 245.098 325.103 246.721 323.936 248.825Z" fill="#E4E4E0"/>
<path d="M332.475 263.223C338.695 267.68 346.428 270.571 353.93 271.579C344.451 268.098 335.243 261.968 328.513 254.235C329.521 250.968 329.689 247.611 329.125 244.232L323.769 254.31C332.374 264.867 336.033 286.667 337.299 306.919C340.27 292.312 338.692 276.616 332.475 263.223Z" fill="#E4E4E0"/>
<path d="M315.952 269.236C315.917 269.236 315.882 269.227 315.85 269.209C315.747 269.15 315.711 269.019 315.766 268.913L330.352 241.468C330.408 241.362 330.537 241.323 330.639 241.382C330.741 241.441 330.778 241.572 330.722 241.678L316.136 269.123C316.098 269.195 316.026 269.236 315.952 269.236Z" fill="#422C4F"/>
<path d="M366.842 257.538C366.747 257.538 366.661 257.472 366.638 257.373C363.709 245.254 359.343 233.519 353.66 222.498C353.606 222.392 353.645 222.26 353.748 222.203C353.849 222.148 353.978 222.185 354.033 222.293C359.732 233.346 364.11 245.113 367.046 257.268C367.076 257.384 367.006 257.503 366.893 257.532C366.876 257.536 366.859 257.538 366.842 257.538Z" fill="#422C4F"/>
<path d="M299.671 262.74C299.638 262.74 299.605 262.732 299.574 262.716C299.471 262.66 299.43 262.528 299.483 262.422L308.855 243.615C308.91 243.508 309.037 243.466 309.14 243.521C309.243 243.577 309.284 243.709 309.231 243.815L299.859 262.621C299.821 262.696 299.748 262.74 299.671 262.74Z" fill="#422C4F"/>
<path d="M362.892 349.472C355.667 349.472 348.415 348.396 341.526 346.273C341.414 346.239 341.35 346.117 341.384 346.001C341.417 345.886 341.537 345.816 341.646 345.854C351.463 348.877 362.021 349.77 372.184 348.429C372.307 348.414 372.405 348.499 372.42 348.619C372.436 348.739 372.354 348.848 372.237 348.862C369.149 349.271 366.023 349.472 362.892 349.472Z" fill="#422C4F"/>
<path d="M375.196 345.118C375.187 345.118 375.175 345.117 375.166 345.115C375.05 345.097 374.97 344.986 374.988 344.867L378.135 322.816C378.152 322.696 378.259 322.612 378.374 322.632C378.49 322.648 378.57 322.76 378.552 322.879L375.406 344.93C375.389 345.04 375.299 345.118 375.196 345.118Z" fill="#422C4F"/>
<path d="M384.754 332.995C384.654 332.995 384.566 332.923 384.547 332.817C384.073 330.274 383.444 327.734 382.675 325.268C382.639 325.153 382.701 325.031 382.812 324.993C382.923 324.959 383.042 325.019 383.078 325.134C383.852 327.616 384.486 330.173 384.962 332.736C384.985 332.854 384.909 332.968 384.795 332.991C384.78 332.994 384.767 332.995 384.754 332.995Z" fill="#422C4F"/>
<path d="M386.168 347.373C386.069 347.373 385.98 347.3 385.961 347.197C385.937 347.079 386.011 346.964 386.126 346.94L392.338 345.654C392.456 345.633 392.564 345.708 392.587 345.826C392.609 345.943 392.536 346.058 392.421 346.083L386.209 347.369C386.195 347.371 386.181 347.373 386.168 347.373Z" fill="#422C4F"/>
<path d="M359.102 269.13C359.102 275.575 357.971 279.359 357.971 279.359C375.494 277.611 383.36 271.173 383.36 271.173L359.102 269.13Z" fill="#E4E4E0"/>
<path d="M383.106 268.767C383.269 269.582 383.359 270.396 383.358 271.172C375.841 273.934 368.1 275.764 360.279 277.392C360.266 274.709 359.873 271.69 359.101 269.129C360.817 268.679 362.536 268.242 364.259 267.82" fill="white"/>
<path d="M360.28 277.611C360.232 277.611 360.184 277.595 360.146 277.562C360.098 277.521 360.069 277.459 360.069 277.394C360.054 274.6 359.629 271.612 358.901 269.195C358.884 269.137 358.89 269.075 358.918 269.023C358.946 268.972 358.994 268.933 359.05 268.918C360.755 268.47 362.491 268.03 364.211 267.609C364.329 267.58 364.438 267.654 364.465 267.771C364.492 267.889 364.422 268.006 364.309 268.034C362.664 268.436 361.002 268.857 359.369 269.285C360.048 271.623 360.451 274.452 360.489 277.126C367.738 275.613 375.486 273.82 383.147 271.018C383.137 270.32 383.054 269.579 382.899 268.811C382.876 268.693 382.949 268.577 383.063 268.553C383.182 268.531 383.289 268.605 383.313 268.722C383.483 269.577 383.57 270.401 383.569 271.172C383.569 271.264 383.512 271.347 383.428 271.377C375.608 274.252 367.701 276.07 360.321 277.606C360.307 277.609 360.293 277.611 360.28 277.611Z" fill="#422C4F"/>
<path d="M346.85 471.034H355.834L353.462 460.764H340.534C331.237 462.875 321.587 471.034 321.587 471.034H342.617L346.85 468.396V471.034Z" fill="#422C4F"/>
<path d="M374.566 471.034H383.55L381.179 460.764H368.251C358.954 462.875 349.304 471.034 349.304 471.034H370.334L374.566 468.396V471.034Z" fill="#422C4F"/>
<path d="M88.876 236.227L108.885 186.592L139.632 195.47L119.623 245.105L88.876 236.227Z" fill="#A64F5A"/>
<path d="M93.4648 233.922L110.854 190.788L135.043 197.773L117.654 240.908L93.4648 233.922Z" fill="#FBEED1"/>
<path d="M129.064 197.451L130.12 190.788L117.826 187.112L116.77 193.775L129.064 197.451Z" fill="#C7D2D7"/>
<path d="M130.12 190.788L131.46 193.11L129.827 192.638L130.12 190.788Z" fill="#99A3B0"/>
<path d="M116.77 193.776L129.064 197.452L129.646 193.776L129.399 194.18C128.797 195.17 127.633 195.626 126.548 195.299L116.985 192.416L116.77 193.776Z" fill="#99A3B0"/>
<path d="M78.6017 332.774V458.043H58.7703L51.8665 316.494L78.6017 332.774Z" fill="#454F6B"/>
<path d="M75.2244 330.718L76.5952 355.961L78.6015 356.287V397.473L72.9969 368.74C67.1126 367.782 60.1626 366.724 54.476 364.548L51.8672 316.493L75.2244 330.718Z" fill="#422C4F"/>
<path d="M105.458 332.774V458.043H85.5365L78.6016 316.494L105.458 332.774Z" fill="#454F6B"/>
<path d="M105.458 332.774V363.398C98.7276 368.087 91.0715 369.364 83.164 369.21C82.5774 369.198 81.9928 369.175 81.4081 369.142L79.3773 330.718L78.6016 316.494L105.458 332.774Z" fill="#422C4F"/>
<path d="M108.668 243.673C108.923 243.255 109.178 242.838 109.433 242.422C112.222 237.871 112.765 232.219 110.892 227.191C107.881 219.104 104.129 210.655 101.886 202.944H69.7967C62.971 206.544 59.1947 215.46 58.4697 223.352C57.7457 231.244 59.0403 239.197 58.7032 247.117C58.1816 259.37 53.8019 271.033 50.7185 282.876C44.4285 307.04 43.5077 332.683 48.0475 357.263C52.3784 358.908 56.8052 360.214 61.2838 361.21L65.3623 338.195L69.3184 362.627C82.9473 364.416 96.8492 363.136 109.938 358.344C111.21 323.932 110.505 289.505 106.156 255.388C105.635 251.301 106.542 247.158 108.668 243.673Z" fill="white"/>
<path d="M129.86 224.743L130.862 220.92L128.499 218.3C128.109 217.867 127.806 217.355 127.612 216.798L125.971 212.102C125.775 211.54 125.975 210.911 126.456 210.58C126.984 210.216 127.69 210.316 128.104 210.812L131.707 215.131L135.559 205.574L136.163 206.502C136.836 207.535 137.195 208.752 137.195 209.998L139.267 214.245C139.664 215.059 139.74 216.001 139.478 216.872L135.876 228.84L129.86 224.743Z" fill="#F0BF9C"/>
<path d="M91.4715 202.944L91.8942 195.398C95.5877 195.398 98.96 192.157 100.212 188.562C101.065 186.113 100.958 183.393 100.354 180.866C99.7518 178.338 98.6776 175.962 97.6109 173.604C96.0951 170.256 94.5793 166.907 93.0645 163.558C91.2456 159.539 85.9573 158.159 81.6773 158.423C77.3964 158.687 73.2444 161.206 71.16 165.084C69.0991 168.916 69.1527 173.662 70.3616 177.866C71.5705 182.07 73.8272 185.854 76.0595 189.582C77.3097 191.67 78.56 193.758 79.8103 195.846L79.0882 202.944H91.4715Z" fill="#F0BF9C"/>
<path d="M71.9565 259.154C72.045 259.119 72.1033 259.026 72.0921 258.925C70.7184 246.513 70.8201 233.94 72.3961 221.555C72.4112 221.436 72.3302 221.326 72.2144 221.31C72.1015 221.296 71.9932 221.378 71.9781 221.498C70.3974 233.919 70.2948 246.527 71.6731 258.974C71.6863 259.094 71.7908 259.18 71.9066 259.166C71.9235 259.164 71.9405 259.159 71.9565 259.154Z" fill="#422C4F"/>
<path d="M82.7392 359.666C89.9642 359.666 97.2164 358.589 104.105 356.466C104.217 356.432 104.281 356.311 104.247 356.195C104.214 356.08 104.094 356.009 103.985 356.047C94.1679 359.07 83.6101 359.964 73.4459 358.622C73.3225 358.608 73.2246 358.692 73.2095 358.811C73.1945 358.931 73.2764 359.04 73.3922 359.056C76.4812 359.463 79.6079 359.666 82.7392 359.666Z" fill="#422C4F"/>
<path d="M70.4341 355.31C70.4435 355.31 70.4548 355.309 70.4642 355.307C70.58 355.289 70.66 355.178 70.6421 355.06L67.4948 333.008C67.4788 332.888 67.3714 332.805 67.2556 332.824C67.1398 332.842 67.0598 332.953 67.0777 333.072L70.2251 355.123C70.2411 355.232 70.3315 355.31 70.4341 355.31Z" fill="#422C4F"/>
<path d="M60.8771 343.187C60.9769 343.187 61.0654 343.115 61.0842 343.01C61.5578 340.466 62.1867 337.926 62.9559 335.461C62.9917 335.346 62.9305 335.223 62.8194 335.185C62.7083 335.152 62.5887 335.211 62.5529 335.326C61.7781 337.808 61.1454 340.366 60.669 342.928C60.6464 343.047 60.7218 343.161 60.8366 343.183C60.8508 343.186 60.8639 343.187 60.8771 343.187Z" fill="#422C4F"/>
<path d="M59.4632 357.564C59.562 357.564 59.6505 357.493 59.6703 357.389C59.6938 357.271 59.6194 357.156 59.5046 357.131L53.2927 355.845C53.175 355.824 53.0667 355.899 53.0441 356.017C53.0206 356.135 53.095 356.25 53.2098 356.274L59.4217 357.56C59.4359 357.563 59.45 357.564 59.4632 357.564Z" fill="#422C4F"/>
<path d="M86.1096 266.291C87.15 272.646 88.8757 276.181 88.8757 276.181C71.3171 277.486 62.5227 272.497 62.5227 272.497L86.1096 266.291Z" fill="#E4E4E0"/>
<path d="M62.3835 270.081C62.3533 270.912 62.3966 271.73 62.5219 272.495C70.3795 273.92 78.3067 274.386 86.2802 274.64C85.8603 271.993 85.7605 268.948 86.1088 266.289C84.3445 266.142 82.5782 266.009 80.812 265.891" fill="white"/>
<path d="M86.2756 274.859C78.7503 274.62 70.6611 274.194 62.4863 272.71C62.3987 272.695 62.33 272.623 62.3149 272.532C62.1897 271.772 62.1417 270.945 62.1727 270.073C62.1775 269.952 62.2707 269.862 62.3921 269.863C62.5079 269.867 62.5992 269.969 62.5955 270.09C62.5672 270.874 62.6049 271.619 62.7075 272.308C70.7139 273.748 78.6421 274.175 86.0327 274.415C85.6392 271.771 85.5808 268.913 85.8727 266.49C84.1931 266.351 82.4871 266.223 80.8 266.11C80.6832 266.103 80.5957 265.999 80.6032 265.878C80.6107 265.758 80.7067 265.666 80.8273 265.674C82.5907 265.792 84.3738 265.926 86.1269 266.073C86.1843 266.078 86.2379 266.107 86.2737 266.154C86.3104 266.2 86.3265 266.261 86.3189 266.32C85.9913 268.829 86.0534 271.849 86.4903 274.606C86.5006 274.67 86.4827 274.737 86.4413 274.786C86.4093 274.824 86.3641 274.849 86.317 274.857C86.3029 274.858 86.2888 274.859 86.2756 274.859Z" fill="#422C4F"/>
<path d="M108.668 243.673C108.772 243.502 108.877 243.332 108.981 243.16V243.159L100.254 228.202C100.161 231.865 100.677 235.91 102.727 238.898C103.533 240.073 104.5 241.176 104.935 242.545C105.563 244.525 104.971 246.667 104.475 248.687C103.097 254.29 102.461 260.156 103.312 265.87C104.005 270.523 105.756 275.06 108.572 278.732C107.94 270.937 107.147 263.153 106.157 255.386C105.635 251.301 106.542 247.157 108.668 243.673Z" fill="#E4E4E0"/>
<path d="M101.886 202.944C105.739 202.944 109.231 205.288 110.801 208.929L123.04 237.304L129.018 222.771C134.892 221.83 138.129 228.53 138.129 228.53L130.204 252.296C129.051 255.756 125.903 258.078 122.365 258.078C119.461 258.078 116.767 256.506 115.267 253.932L99.0017 226.054C91.8238 212.219 101.886 202.944 101.886 202.944Z" fill="white"/>
<path d="M125.549 230.403L122.899 236.978L124.829 241.453C126.376 237.305 125.549 230.403 125.549 230.403Z" fill="#E4E4E0"/>
<path d="M115.267 254.15C115.195 254.15 115.125 254.113 115.086 254.044L98.8207 226.166C98.7605 226.063 98.7925 225.929 98.8923 225.867C98.9921 225.806 99.122 225.838 99.1822 225.941L115.447 253.819C115.508 253.922 115.476 254.056 115.376 254.119C115.341 254.141 115.304 254.15 115.267 254.15Z" fill="#422C4F"/>
<path d="M125.365 242.914C125.284 242.914 125.206 242.866 125.172 242.785L116.577 222.856C116.53 222.746 116.577 222.617 116.683 222.568C116.79 222.519 116.915 222.568 116.963 222.679L125.558 242.607C125.605 242.717 125.558 242.846 125.451 242.896C125.423 242.908 125.394 242.914 125.365 242.914Z" fill="#422C4F"/>
<path d="M98.5805 163.476C97.6362 158.716 94.2252 154.559 89.8389 152.825C85.735 151.202 81.0228 151.68 77.0178 153.548C69.8107 156.91 64.8472 164.881 64.8642 173.061C64.8736 177.615 66.2849 182.039 66.7208 186.571C67.1642 191.177 66.5824 195.887 65.0327 200.23C63.2816 205.139 60.3507 209.496 58.1947 214.228C56.0387 218.961 54.6661 224.449 56.2713 229.41C57.7438 233.962 61.6142 237.422 65.9893 239.017C70.3643 240.611 75.1847 240.504 79.7227 239.51C85.1672 238.319 90.7634 235.461 93.0597 230.216C94.4851 226.958 94.4408 223.245 94.3712 219.669C94.3712 211.182 94.0369 202.679 93.8694 194.193C93.7874 190.043 93.4212 185.778 93.6763 181.636C93.8355 179.051 94.9379 177.319 96.1732 175.157C98.2171 171.585 99.4071 167.639 98.5805 163.476Z" fill="#6A3649"/>
<path d="M100.177 471.032H115.756C114.619 468.757 112.716 466.991 110.407 466.069L109.981 465.898C108.218 465.194 106.68 463.993 105.542 462.433L102.341 458.042H91.1599C91.1599 458.042 88.1001 464.455 92.8075 471.031H96.8869V467.297L100.177 471.032Z" fill="#422C4F"/>
<path d="M73.3454 471.032H88.9241C87.7868 468.757 85.884 466.991 83.5746 466.069L83.149 465.898C81.3856 465.194 79.8482 463.993 78.7099 462.433L75.5089 458.042H64.3279C64.3279 458.042 61.268 464.455 65.9755 471.031H70.0549V467.297L73.3454 471.032Z" fill="#422C4F"/>
<defs>
<filter id="filter0_d_152_36" x="82.1912" y="11.7344" width="256.984" height="154.305" filterUnits="userSpaceOnUse" color-interpolation-filters="sRGB">
<feFlood flood-opacity="0" result="BackgroundImageFix"/>
<feColorMatrix in="SourceAlpha" type="matrix" values="0 0 0 0 0 0 0 0 0 0 0 0 0 0 0 0 0 0 127 0" result="hardAlpha"/>
<feOffset dy="4"/>
<feGaussianBlur stdDeviation="2"/>
<feComposite in2="hardAlpha" operator="out"/>
<feColorMatrix type="matrix" values="0 0 0 0 0 0 0 0 0 0 0 0 0 0 0 0 0 0 0.25 0"/>
<feBlend mode="normal" in2="BackgroundImageFix" result="effect1_dropShadow_152_36"/>
<feBlend mode="normal" in="SourceGraphic" in2="effect1_dropShadow_152_36" result="shape"/>
</filter>
</defs>
</svg>
