<svg width="36" height="37" viewBox="0 0 36 37" fill="none" xmlns="http://www.w3.org/2000/svg">
<path d="M28.8116 29.6549C29.4763 30.1815 30.7798 31.1641 32.7221 32.6028L34.3577 33.8386C34.5459 33.9876 34.6605 34.1885 34.7017 34.4412C34.7551 34.6836 34.6107 34.9494 34.2686 35.2387C34.0365 35.435 33.8218 35.5651 33.6247 35.629C33.4398 35.6827 33.2853 35.7003 33.1612 35.682C33.0496 35.6737 32.9752 35.6647 32.9379 35.6552C32.9131 35.6556 32.8633 35.6361 32.7884 35.5968C32.726 35.5673 32.6136 35.5083 32.4512 35.4197C32.301 35.3207 32.1256 35.1918 31.9249 35.0328C29.3414 32.9861 27.9495 31.8934 27.7492 31.7547C27.6241 31.6756 26.778 31.0353 25.211 29.8339C23.6562 28.6221 22.4273 27.6586 21.5244 26.9432C21.0854 26.5955 20.3325 25.969 19.2655 25.0636L16.1789 22.5283C15.8277 22.2501 15.6809 21.9737 15.7384 21.6991C15.7956 21.4043 15.9403 21.1587 16.1725 20.9625C16.4046 20.7662 16.6874 20.64 17.0209 20.5841C17.3543 20.5281 17.659 20.6094 17.9349 20.8279C18.1356 20.9869 18.2988 21.1262 18.4245 21.2458C19.7802 22.3999 21.1228 23.5036 22.4522 24.5567L23.4304 25.3317L28.8116 29.6549Z" fill="black"/>
<path d="M11.104 7.29839C12.5333 7.29839 13.8347 7.47972 15.008 7.84239C16.1813 8.18372 17.1413 8.69572 17.888 9.37839C19.232 10.5944 20.1707 11.9277 20.704 13.3784C21.2587 14.8077 21.536 16.6424 21.536 18.8824C21.536 19.3517 21.472 19.7784 21.344 20.1624C21.2373 20.5464 21.056 21.0371 20.8 21.6344C20.48 22.2957 20.288 22.8184 20.224 23.2024C19.7973 23.9491 19.0933 24.6637 18.112 25.3464C17.152 26.0291 16.1067 26.5837 14.976 27.0104C13.8453 27.4371 12.8533 27.6504 12 27.6504C7.88267 27.6504 4.94933 26.2424 3.2 23.4264C2.70933 22.6371 2.32533 21.8157 2.048 20.9624C1.792 20.1091 1.664 19.2771 1.664 18.4664C1.664 16.2904 2.048 14.4024 2.816 12.8024C3.60533 11.1811 4.69333 9.92239 6.08 9.02639C6.912 8.53572 7.776 8.13039 8.672 7.81039C9.58933 7.46906 10.4 7.29839 11.104 7.29839ZM4.992 18.5624C4.992 19.7144 5.248 20.6637 5.76 21.4104C6.29333 22.1571 7.104 22.9677 8.192 23.8424C9.088 24.1837 9.696 24.4077 10.016 24.5144C10.336 24.5997 10.6987 24.6424 11.104 24.6424C13.2587 24.6424 14.976 24.0557 16.256 22.8824C17.536 21.7091 18.176 20.0984 18.176 18.0504C18.176 16.4291 17.9947 15.1491 17.632 14.2104C17.2693 13.2717 16.6187 12.4291 15.68 11.6824C15.1893 11.2771 14.56 10.9784 13.792 10.7864C13.0453 10.5944 12.2347 10.4984 11.36 10.4984C10.0373 10.4984 8.896 10.8931 7.936 11.6824C6.976 12.4504 6.24 13.4531 5.728 14.6904C5.23733 15.9277 4.992 17.2184 4.992 18.5624Z" fill="black"/>
</svg>
